# MagicaVoxel @ Ephtracy

# group
o 

# material
mtllib enemy-9.mtl
usemtl palette

# normals
vn 0 -1 0
vn 0 1 0
vn 0 0 1
vn 0 0 -1
vn 1 0 0
vn -1 0 0

# texcoords
vt 0.708984 0.5
vt 0.919922 0.5

# verts
v -2.1 0.6 0.5
v -2.1 0.6 0
v -2.3 0.6 0.6
v -2.3 0.6 0.5
v -2.8 0.6 0.6
v -2.8 0.6 0
v -3.3 0.6 0.7
v -3.3 0.6 0.6
v -3.3 0.6 0
v -3.3 0.6 -0.2
v -3.9 0.6 0.7
v -3.9 0.6 0.6
v -3.9 0.6 0
v -3.9 0.6 -0.2
v -4.1 0.6 0.6
v -4.1 0.6 0
v -2.1 0.8 0
v -2.1 0.8 -0.2
v -2.6 0.8 0
v -2.6 0.8 -0.1
v -2.8 0.8 0
v -2.8 0.8 -0.1
v -2.8 0.8 -0.2
v -3.3 0.8 0
v -3.3 0.8 -0.2
v -3.9 0.8 0.7
v -3.9 0.8 0.6
v -3.9 0.8 0
v -3.9 0.8 -0.2
v -4.1 0.8 0.7
v -4.1 0.8 0.6
v -4.1 0.8 0
v -4.1 0.8 -0.2
v -2.2 1.3 0
v -2.2 1.3 -0.1
v -2.8 1.3 0
v -2.8 1.3 -0.1
v -3.3 1.3 0
v -3.3 1.3 -0.1
v -3.9 1.3 0
v -3.9 1.3 -0.1
v -4 1.3 0
v -4 1.3 -0.1
v -2.2 1.4 0.1
v -2.2 1.4 0
v -2.8 1.4 0.1
v -2.8 1.4 0
v -3.3 1.4 0.1
v -3.3 1.4 0
v -3.3 1.4 -0.1
v -3.4 1.4 0
v -3.4 1.4 -0.1
v -3.8 1.4 0
v -3.8 1.4 -0.1
v -3.9 1.4 0.6
v -3.9 1.4 0.5
v -3.9 1.4 0.1
v -3.9 1.4 0
v -3.9 1.4 -0.1
v -4 1.4 0.6
v -4 1.4 0.5
v -4 1.4 0.1
v -4 1.4 0
v -2.2 1.5 0.4
v -2.2 1.5 0.1
v -2.3 1.5 0.5
v -2.3 1.5 0.4
v -2.8 1.5 0.5
v -2.8 1.5 0.1
v -3.3 1.5 0.6
v -3.3 1.5 0.5
v -3.3 1.5 0.1
v -3.3 1.5 0
v -3.4 1.5 0
v -3.4 1.5 -0.1
v -3.8 1.5 0
v -3.8 1.5 -0.1
v -3.9 1.5 0.6
v -3.9 1.5 0.5
v -3.9 1.5 0.1
v -3.9 1.5 0
v -4 1.5 0.5
v -4 1.5 0.1
v -2.2 0.7 0.4
v -2.2 0.7 0.1
v -2.3 0.7 0.5
v -2.3 0.7 0.4
v -2.8 0.7 0.5
v -2.8 0.7 0.1
v -3.3 0.7 0.6
v -3.3 0.7 0.5
v -3.3 0.7 0.1
v -3.3 0.7 0
v -3.4 0.7 0
v -3.4 0.7 -0.1
v -3.8 0.7 0
v -3.8 0.7 -0.1
v -3.9 0.7 0.6
v -3.9 0.7 0.5
v -3.9 0.7 0.1
v -3.9 0.7 0
v -4 0.7 0.5
v -4 0.7 0.1
v -2.2 0.8 0.1
v -2.2 0.8 0
v -2.6 0.8 0
v -2.8 0.8 0.1
v -2.8 0.8 0
v -3.3 0.8 0.1
v -3.3 0.8 0
v -3.3 0.8 -0.1
v -3.4 0.8 0
v -3.4 0.8 -0.1
v -3.8 0.8 0
v -3.8 0.8 -0.1
v -3.9 0.8 0.6
v -3.9 0.8 0.5
v -3.9 0.8 0.1
v -3.9 0.8 0
v -3.9 0.8 -0.1
v -4 0.8 0.6
v -4 0.8 0.5
v -4 0.8 0.1
v -4 0.8 0
v -2.2 0.9 0
v -2.2 0.9 -0.1
v -2.6 0.9 0
v -2.6 0.9 -0.1
v -2.8 0.9 -0.1
v -3.3 0.9 0
v -3.3 0.9 -0.1
v -3.9 0.9 0
v -3.9 0.9 -0.1
v -4 0.9 0
v -4 0.9 -0.1
v -2.1 1.4 0
v -2.1 1.4 -0.2
v -2.8 1.4 0
v -2.8 1.4 -0.2
v -3.3 1.4 0
v -3.3 1.4 -0.2
v -3.9 1.4 0.7
v -3.9 1.4 0.6
v -3.9 1.4 0
v -3.9 1.4 -0.2
v -4.1 1.4 0.7
v -4.1 1.4 0.6
v -4.1 1.4 0
v -4.1 1.4 -0.2
v -2.1 1.6 0.5
v -2.1 1.6 0
v -2.3 1.6 0.6
v -2.3 1.6 0.5
v -2.8 1.6 0.6
v -2.8 1.6 0
v -3.3 1.6 0.7
v -3.3 1.6 0.6
v -3.3 1.6 0
v -3.3 1.6 -0.2
v -3.9 1.6 0.7
v -3.9 1.6 0.6
v -3.9 1.6 0
v -3.9 1.6 -0.2
v -4.1 1.6 0.6
v -4.1 1.6 0
v -3.3 0.6 0.7
v -3.9 0.6 0.7
v -3.9 0.8 0.7
v -4.1 0.8 0.7
v -3.9 1.4 0.7
v -4.1 1.4 0.7
v -3.3 1.6 0.7
v -3.9 1.6 0.7
v -2.3 0.6 0.6
v -2.8 0.6 0.6
v -3.3 0.6 0.6
v -3.9 0.6 0.6
v -4.1 0.6 0.6
v -3.9 0.8 0.6
v -4.1 0.8 0.6
v -3.9 1.4 0.6
v -4.1 1.4 0.6
v -2.3 1.6 0.6
v -2.8 1.6 0.6
v -3.3 1.6 0.6
v -3.9 1.6 0.6
v -4.1 1.6 0.6
v -2.1 0.6 0.5
v -2.3 0.6 0.5
v -2.1 1.6 0.5
v -2.3 1.6 0.5
v -2.2 0.7 0.1
v -2.8 0.7 0.1
v -3.3 0.7 0.1
v -3.9 0.7 0.1
v -4 0.7 0.1
v -2.2 0.8 0.1
v -2.8 0.8 0.1
v -3.3 0.8 0.1
v -3.9 0.8 0.1
v -4 0.8 0.1
v -2.2 1.4 0.1
v -2.8 1.4 0.1
v -3.3 1.4 0.1
v -3.9 1.4 0.1
v -4 1.4 0.1
v -2.2 1.5 0.1
v -2.8 1.5 0.1
v -3.3 1.5 0.1
v -3.9 1.5 0.1
v -4 1.5 0.1
v -3.3 0.7 0
v -3.4 0.7 0
v -3.8 0.7 0
v -3.9 0.7 0
v -2.2 0.8 0
v -2.6 0.8 0
v -2.8 0.8 0
v -3.3 0.8 0
v -3.4 0.8 0
v -3.8 0.8 0
v -3.9 0.8 0
v -4 0.8 0
v -2.2 0.9 0
v -2.6 0.9 0
v -3.3 0.9 0
v -3.9 0.9 0
v -4 0.9 0
v -2.2 1.3 0
v -2.8 1.3 0
v -3.3 1.3 0
v -3.9 1.3 0
v -4 1.3 0
v -2.2 1.4 0
v -2.8 1.4 0
v -3.3 1.4 0
v -3.4 1.4 0
v -3.8 1.4 0
v -3.9 1.4 0
v -4 1.4 0
v -3.3 1.5 0
v -3.4 1.5 0
v -3.8 1.5 0
v -3.9 1.5 0
v -3.4 0.7 -0.1
v -3.8 0.7 -0.1
v -3.3 0.8 -0.1
v -3.4 0.8 -0.1
v -3.8 0.8 -0.1
v -3.9 0.8 -0.1
v -2.2 0.9 -0.1
v -2.6 0.9 -0.1
v -2.8 0.9 -0.1
v -3.3 0.9 -0.1
v -3.9 0.9 -0.1
v -4 0.9 -0.1
v -2.2 1.3 -0.1
v -2.8 1.3 -0.1
v -3.3 1.3 -0.1
v -3.9 1.3 -0.1
v -4 1.3 -0.1
v -3.3 1.4 -0.1
v -3.4 1.4 -0.1
v -3.8 1.4 -0.1
v -3.9 1.4 -0.1
v -3.4 1.5 -0.1
v -3.8 1.5 -0.1
v -3.3 0.7 0.6
v -3.9 0.7 0.6
v -3.9 0.8 0.6
v -4 0.8 0.6
v -3.9 1.4 0.6
v -4 1.4 0.6
v -3.3 1.5 0.6
v -3.9 1.5 0.6
v -2.3 0.7 0.5
v -2.8 0.7 0.5
v -3.3 0.7 0.5
v -3.9 0.7 0.5
v -4 0.7 0.5
v -3.9 0.8 0.5
v -4 0.8 0.5
v -3.9 1.4 0.5
v -4 1.4 0.5
v -2.3 1.5 0.5
v -2.8 1.5 0.5
v -3.3 1.5 0.5
v -3.9 1.5 0.5
v -4 1.5 0.5
v -2.2 0.7 0.4
v -2.3 0.7 0.4
v -2.2 1.5 0.4
v -2.3 1.5 0.4
v -2.1 0.6 0
v -2.8 0.6 0
v -3.3 0.6 0
v -3.9 0.6 0
v -4.1 0.6 0
v -2.1 0.8 0
v -2.6 0.8 0
v -2.8 0.8 0
v -3.3 0.8 0
v -3.9 0.8 0
v -4.1 0.8 0
v -2.1 1.4 0
v -2.8 1.4 0
v -3.3 1.4 0
v -3.9 1.4 0
v -4.1 1.4 0
v -2.1 1.6 0
v -2.8 1.6 0
v -3.3 1.6 0
v -3.9 1.6 0
v -4.1 1.6 0
v -3.3 0.6 -0.2
v -3.9 0.6 -0.2
v -2.1 0.8 -0.2
v -2.8 0.8 -0.2
v -3.3 0.8 -0.2
v -3.9 0.8 -0.2
v -4.1 0.8 -0.2
v -2.1 1.4 -0.2
v -2.8 1.4 -0.2
v -3.3 1.4 -0.2
v -3.9 1.4 -0.2
v -4.1 1.4 -0.2
v -3.3 1.6 -0.2
v -3.9 1.6 -0.2
v -2.1 0.6 0.5
v -2.1 1.6 0.5
v -2.1 0.6 0
v -2.1 0.8 0
v -2.1 1.4 0
v -2.1 1.6 0
v -2.1 0.8 -0.2
v -2.1 1.4 -0.2
v -2.3 0.6 0.6
v -2.3 1.6 0.6
v -2.3 0.6 0.5
v -2.3 1.6 0.5
v -3.3 0.6 0.7
v -3.3 1.6 0.7
v -3.3 0.6 0.6
v -3.3 1.6 0.6
v -3.3 0.6 0
v -3.3 0.8 0
v -3.3 1.4 0
v -3.3 1.6 0
v -3.3 0.6 -0.2
v -3.3 0.8 -0.2
v -3.3 1.4 -0.2
v -3.3 1.6 -0.2
v -3.8 0.7 0
v -3.8 0.8 0
v -3.8 1.4 0
v -3.8 1.5 0
v -3.8 0.7 -0.1
v -3.8 0.8 -0.1
v -3.8 1.4 -0.1
v -3.8 1.5 -0.1
v -3.9 0.7 0.6
v -3.9 0.8 0.6
v -3.9 1.4 0.6
v -3.9 1.5 0.6
v -3.9 0.7 0.5
v -3.9 0.8 0.5
v -3.9 1.4 0.5
v -3.9 1.5 0.5
v -3.9 0.7 0.1
v -3.9 0.8 0.1
v -3.9 1.4 0.1
v -3.9 1.5 0.1
v -3.9 0.7 0
v -3.9 0.8 0
v -3.9 0.9 0
v -3.9 1.3 0
v -3.9 1.4 0
v -3.9 1.5 0
v -3.9 0.8 -0.1
v -3.9 0.9 -0.1
v -3.9 1.3 -0.1
v -3.9 1.4 -0.1
v -4 0.8 0.6
v -4 1.4 0.6
v -4 0.7 0.5
v -4 0.8 0.5
v -4 1.4 0.5
v -4 1.5 0.5
v -4 0.7 0.1
v -4 0.8 0.1
v -4 1.4 0.1
v -4 1.5 0.1
v -4 0.8 0
v -4 0.9 0
v -4 1.3 0
v -4 1.4 0
v -4 0.9 -0.1
v -4 1.3 -0.1
v -2.2 0.7 0.4
v -2.2 1.5 0.4
v -2.2 0.7 0.1
v -2.2 0.8 0.1
v -2.2 1.4 0.1
v -2.2 1.5 0.1
v -2.2 0.8 0
v -2.2 0.9 0
v -2.2 1.3 0
v -2.2 1.4 0
v -2.2 0.9 -0.1
v -2.2 1.3 -0.1
v -2.3 0.7 0.5
v -2.3 1.5 0.5
v -2.3 0.7 0.4
v -2.3 1.5 0.4
v -3.3 0.7 0.6
v -3.3 1.5 0.6
v -3.3 0.7 0.5
v -3.3 1.5 0.5
v -3.3 0.7 0.1
v -3.3 0.8 0.1
v -3.3 1.4 0.1
v -3.3 1.5 0.1
v -3.3 0.7 0
v -3.3 0.8 0
v -3.3 0.9 0
v -3.3 1.3 0
v -3.3 1.4 0
v -3.3 1.5 0
v -3.3 0.8 -0.1
v -3.3 0.9 -0.1
v -3.3 1.3 -0.1
v -3.3 1.4 -0.1
v -3.4 0.7 0
v -3.4 0.8 0
v -3.4 1.4 0
v -3.4 1.5 0
v -3.4 0.7 -0.1
v -3.4 0.8 -0.1
v -3.4 1.4 -0.1
v -3.4 1.5 -0.1
v -3.9 0.6 0.7
v -3.9 0.8 0.7
v -3.9 1.4 0.7
v -3.9 1.6 0.7
v -3.9 0.6 0.6
v -3.9 0.8 0.6
v -3.9 1.4 0.6
v -3.9 1.6 0.6
v -3.9 0.6 0
v -3.9 0.8 0
v -3.9 1.4 0
v -3.9 1.6 0
v -3.9 0.6 -0.2
v -3.9 0.8 -0.2
v -3.9 1.4 -0.2
v -3.9 1.6 -0.2
v -4.1 0.8 0.7
v -4.1 1.4 0.7
v -4.1 0.6 0.6
v -4.1 0.8 0.6
v -4.1 1.4 0.6
v -4.1 1.6 0.6
v -4.1 0.6 0
v -4.1 0.8 0
v -4.1 1.4 0
v -4.1 1.6 0
v -4.1 0.8 -0.2
v -4.1 1.4 -0.2

# faces
f 4/1/1 2/1/1 1/1/1
f 5/1/1 4/1/1 3/1/1
f 6/1/1 2/1/1 4/1/1
f 6/1/1 4/1/1 5/1/1
f 8/2/1 6/2/1 5/2/1
f 9/2/1 6/2/1 8/2/1
f 11/2/1 9/2/1 8/2/1
f 11/2/1 10/2/1 9/2/1
f 11/2/1 8/2/1 7/2/1
f 12/2/1 10/2/1 11/2/1
f 13/2/1 10/2/1 12/2/1
f 14/2/1 10/2/1 13/2/1
f 15/2/1 13/2/1 12/2/1
f 16/2/1 13/2/1 15/2/1
f 19/1/1 18/1/1 17/1/1
f 20/1/1 18/1/1 19/1/1
f 21/2/1 20/2/1 19/2/1
f 22/1/1 18/1/1 20/1/1
f 22/2/1 20/2/1 21/2/1
f 23/1/1 18/1/1 22/1/1
f 24/2/1 22/2/1 21/2/1
f 24/2/1 23/2/1 22/2/1
f 25/2/1 23/2/1 24/2/1
f 30/2/1 27/2/1 26/2/1
f 31/2/1 27/2/1 30/2/1
f 32/2/1 29/2/1 28/2/1
f 33/2/1 29/2/1 32/2/1
f 36/1/1 35/1/1 34/1/1
f 37/1/1 35/1/1 36/1/1
f 38/2/1 37/2/1 36/2/1
f 39/2/1 37/2/1 38/2/1
f 42/2/1 41/2/1 40/2/1
f 43/2/1 41/2/1 42/2/1
f 46/1/1 45/1/1 44/1/1
f 47/1/1 45/1/1 46/1/1
f 48/2/1 47/2/1 46/2/1
f 49/2/1 47/2/1 48/2/1
f 51/2/1 50/2/1 49/2/1
f 52/2/1 50/2/1 51/2/1
f 58/2/1 54/2/1 53/2/1
f 59/2/1 54/2/1 58/2/1
f 60/2/1 56/2/1 55/2/1
f 61/2/1 56/2/1 60/2/1
f 62/2/1 58/2/1 57/2/1
f 63/2/1 58/2/1 62/2/1
f 67/1/1 65/1/1 64/1/1
f 68/1/1 67/1/1 66/1/1
f 69/1/1 65/1/1 67/1/1
f 69/1/1 67/1/1 68/1/1
f 71/2/1 69/2/1 68/2/1
f 72/2/1 69/2/1 71/2/1
f 74/2/1 72/2/1 71/2/1
f 74/2/1 73/2/1 72/2/1
f 74/2/1 71/2/1 70/2/1
f 76/2/1 74/2/1 70/2/1
f 76/2/1 75/2/1 74/2/1
f 77/2/1 75/2/1 76/2/1
f 78/2/1 76/2/1 70/2/1
f 79/2/1 76/2/1 78/2/1
f 80/2/1 76/2/1 79/2/1
f 81/2/1 76/2/1 80/2/1
f 82/2/1 80/2/1 79/2/1
f 83/2/1 80/2/1 82/2/1
f 84/1/2 85/1/2 87/1/2
f 86/1/2 87/1/2 88/1/2
f 87/1/2 85/1/2 89/1/2
f 88/1/2 87/1/2 89/1/2
f 88/2/2 89/2/2 91/2/2
f 91/2/2 89/2/2 92/2/2
f 91/2/2 92/2/2 94/2/2
f 92/2/2 93/2/2 94/2/2
f 90/2/2 91/2/2 94/2/2
f 90/2/2 94/2/2 96/2/2
f 94/2/2 95/2/2 96/2/2
f 96/2/2 95/2/2 97/2/2
f 90/2/2 96/2/2 98/2/2
f 98/2/2 96/2/2 99/2/2
f 99/2/2 96/2/2 100/2/2
f 100/2/2 96/2/2 101/2/2
f 99/2/2 100/2/2 102/2/2
f 102/2/2 100/2/2 103/2/2
f 104/1/2 105/1/2 106/1/2
f 104/1/2 106/1/2 107/1/2
f 107/1/2 106/1/2 108/1/2
f 107/2/2 108/2/2 109/2/2
f 109/2/2 108/2/2 110/2/2
f 110/2/2 111/2/2 112/2/2
f 112/2/2 111/2/2 113/2/2
f 114/2/2 115/2/2 119/2/2
f 119/2/2 115/2/2 120/2/2
f 116/2/2 117/2/2 121/2/2
f 121/2/2 117/2/2 122/2/2
f 118/2/2 119/2/2 123/2/2
f 123/2/2 119/2/2 124/2/2
f 125/1/2 126/1/2 127/1/2
f 127/1/2 126/1/2 128/1/2
f 127/2/2 128/2/2 129/2/2
f 127/2/2 129/2/2 130/2/2
f 130/2/2 129/2/2 131/2/2
f 132/2/2 133/2/2 134/2/2
f 134/2/2 133/2/2 135/2/2
f 136/1/2 137/1/2 138/1/2
f 138/1/2 137/1/2 139/1/2
f 138/2/2 139/2/2 140/2/2
f 140/2/2 139/2/2 141/2/2
f 142/2/2 143/2/2 146/2/2
f 146/2/2 143/2/2 147/2/2
f 144/2/2 145/2/2 148/2/2
f 148/2/2 145/2/2 149/2/2
f 150/1/2 151/1/2 153/1/2
f 152/1/2 153/1/2 154/1/2
f 153/1/2 151/1/2 155/1/2
f 154/1/2 153/1/2 155/1/2
f 154/2/2 155/2/2 157/2/2
f 157/2/2 155/2/2 158/2/2
f 157/2/2 158/2/2 160/2/2
f 158/2/2 159/2/2 160/2/2
f 156/2/2 157/2/2 160/2/2
f 160/2/2 159/2/2 161/2/2
f 161/2/2 159/2/2 162/2/2
f 162/2/2 159/2/2 163/2/2
f 161/2/2 162/2/2 164/2/2
f 164/2/2 162/2/2 165/2/2
f 168/2/3 167/2/3 166/2/3
f 170/2/3 168/2/3 166/2/3
f 170/2/3 169/2/3 168/2/3
f 171/2/3 169/2/3 170/2/3
f 172/2/3 170/2/3 166/2/3
f 173/2/3 170/2/3 172/2/3
f 179/2/3 178/2/3 177/2/3
f 180/2/3 178/2/3 179/2/3
f 183/1/3 175/1/3 174/1/3
f 184/2/3 176/2/3 175/2/3
f 184/1/3 175/1/3 183/1/3
f 185/2/3 176/2/3 184/2/3
f 186/2/3 182/2/3 181/2/3
f 187/2/3 182/2/3 186/2/3
f 190/1/3 189/1/3 188/1/3
f 191/1/3 189/1/3 190/1/3
f 197/1/3 193/1/3 192/1/3
f 198/2/3 194/2/3 193/2/3
f 198/1/3 193/1/3 197/1/3
f 199/2/3 194/2/3 198/2/3
f 200/2/3 196/2/3 195/2/3
f 201/2/3 196/2/3 200/2/3
f 207/1/3 203/1/3 202/1/3
f 208/2/3 204/2/3 203/2/3
f 208/1/3 203/1/3 207/1/3
f 209/2/3 204/2/3 208/2/3
f 210/2/3 206/2/3 205/2/3
f 211/2/3 206/2/3 210/2/3
f 219/2/3 213/2/3 212/2/3
f 220/2/3 213/2/3 219/2/3
f 221/2/3 215/2/3 214/2/3
f 222/2/3 215/2/3 221/2/3
f 224/1/3 217/1/3 216/1/3
f 225/2/3 218/2/3 217/2/3
f 225/1/3 217/1/3 224/1/3
f 225/2/3 219/2/3 218/2/3
f 226/2/3 219/2/3 225/2/3
f 227/2/3 223/2/3 222/2/3
f 228/2/3 223/2/3 227/2/3
f 234/1/3 230/1/3 229/1/3
f 235/2/3 231/2/3 230/2/3
f 235/1/3 230/1/3 234/1/3
f 236/2/3 231/2/3 235/2/3
f 239/2/3 233/2/3 232/2/3
f 240/2/3 233/2/3 239/2/3
f 241/2/3 237/2/3 236/2/3
f 242/2/3 237/2/3 241/2/3
f 243/2/3 239/2/3 238/2/3
f 244/2/3 239/2/3 243/2/3
f 248/2/3 246/2/3 245/2/3
f 249/2/3 246/2/3 248/2/3
f 254/2/3 248/2/3 247/2/3
f 254/2/3 249/2/3 248/2/3
f 254/2/3 250/2/3 249/2/3
f 255/2/3 250/2/3 254/2/3
f 257/1/3 253/1/3 252/1/3
f 257/1/3 252/1/3 251/1/3
f 258/2/3 256/2/3 255/2/3
f 258/1/3 253/1/3 257/1/3
f 258/2/3 255/2/3 254/2/3
f 258/2/3 254/2/3 253/2/3
f 259/2/3 256/2/3 258/2/3
f 260/2/3 256/2/3 259/2/3
f 261/2/3 256/2/3 260/2/3
f 262/2/3 260/2/3 259/2/3
f 263/2/3 260/2/3 262/2/3
f 264/2/3 260/2/3 263/2/3
f 265/2/3 260/2/3 264/2/3
f 266/2/3 264/2/3 263/2/3
f 267/2/3 264/2/3 266/2/3
f 268/2/4 269/2/4 270/2/4
f 268/2/4 270/2/4 272/2/4
f 270/2/4 271/2/4 272/2/4
f 272/2/4 271/2/4 273/2/4
f 268/2/4 272/2/4 274/2/4
f 274/2/4 272/2/4 275/2/4
f 279/2/4 280/2/4 281/2/4
f 281/2/4 280/2/4 282/2/4
f 276/1/4 277/1/4 285/1/4
f 277/2/4 278/2/4 286/2/4
f 285/1/4 277/1/4 286/1/4
f 286/2/4 278/2/4 287/2/4
f 283/2/4 284/2/4 288/2/4
f 288/2/4 284/2/4 289/2/4
f 290/1/4 291/1/4 292/1/4
f 292/1/4 291/1/4 293/1/4
f 294/1/4 295/1/4 299/1/4
f 299/1/4 295/1/4 300/1/4
f 295/2/4 296/2/4 301/2/4
f 300/1/4 295/1/4 301/1/4
f 301/2/4 296/2/4 302/2/4
f 297/2/4 298/2/4 303/2/4
f 303/2/4 298/2/4 304/2/4
f 305/1/4 306/1/4 310/1/4
f 306/2/4 307/2/4 311/2/4
f 310/1/4 306/1/4 311/1/4
f 311/2/4 307/2/4 312/2/4
f 308/2/4 309/2/4 313/2/4
f 313/2/4 309/2/4 314/2/4
f 315/2/4 316/2/4 319/2/4
f 319/2/4 316/2/4 320/2/4
f 317/1/4 318/1/4 322/1/4
f 320/2/4 321/2/4 323/2/4
f 322/1/4 318/1/4 323/1/4
f 318/2/4 319/2/4 323/2/4
f 319/2/4 320/2/4 323/2/4
f 323/2/4 321/2/4 324/2/4
f 324/2/4 321/2/4 325/2/4
f 325/2/4 321/2/4 326/2/4
f 324/2/4 325/2/4 327/2/4
f 327/2/4 325/2/4 328/2/4
f 331/1/5 330/1/5 329/1/5
f 332/1/5 330/1/5 331/1/5
f 333/1/5 330/1/5 332/1/5
f 334/1/5 330/1/5 333/1/5
f 335/1/5 333/1/5 332/1/5
f 336/1/5 333/1/5 335/1/5
f 339/1/5 338/1/5 337/1/5
f 340/1/5 338/1/5 339/1/5
f 343/2/5 342/2/5 341/2/5
f 344/2/5 342/2/5 343/2/5
f 349/2/5 346/2/5 345/2/5
f 350/2/5 346/2/5 349/2/5
f 351/2/5 348/2/5 347/2/5
f 352/2/5 348/2/5 351/2/5
f 357/2/5 354/2/5 353/2/5
f 358/2/5 354/2/5 357/2/5
f 359/2/5 356/2/5 355/2/5
f 360/2/5 356/2/5 359/2/5
f 365/2/5 362/2/5 361/2/5
f 366/2/5 362/2/5 365/2/5
f 367/2/5 364/2/5 363/2/5
f 368/2/5 364/2/5 367/2/5
f 373/2/5 370/2/5 369/2/5
f 374/2/5 370/2/5 373/2/5
f 377/2/5 372/2/5 371/2/5
f 378/2/5 372/2/5 377/2/5
f 379/2/5 375/2/5 374/2/5
f 380/2/5 375/2/5 379/2/5
f 381/2/5 377/2/5 376/2/5
f 382/2/5 377/2/5 381/2/5
f 386/2/5 384/2/5 383/2/5
f 387/2/5 384/2/5 386/2/5
f 389/2/5 386/2/5 385/2/5
f 389/2/5 388/2/5 387/2/5
f 389/2/5 387/2/5 386/2/5
f 390/2/5 388/2/5 389/2/5
f 391/2/5 388/2/5 390/2/5
f 392/2/5 388/2/5 391/2/5
f 393/2/5 391/2/5 390/2/5
f 394/2/5 391/2/5 393/2/5
f 395/2/5 391/2/5 394/2/5
f 396/2/5 391/2/5 395/2/5
f 397/2/5 395/2/5 394/2/5
f 398/2/5 395/2/5 397/2/5
f 399/1/6 400/1/6 401/1/6
f 401/1/6 400/1/6 402/1/6
f 402/1/6 400/1/6 403/1/6
f 403/1/6 400/1/6 404/1/6
f 402/1/6 403/1/6 405/1/6
f 405/1/6 403/1/6 406/1/6
f 406/1/6 403/1/6 407/1/6
f 407/1/6 403/1/6 408/1/6
f 406/1/6 407/1/6 409/1/6
f 409/1/6 407/1/6 410/1/6
f 411/1/6 412/1/6 413/1/6
f 413/1/6 412/1/6 414/1/6
f 415/2/6 416/2/6 417/2/6
f 417/2/6 416/2/6 418/2/6
f 419/2/6 420/2/6 423/2/6
f 423/2/6 420/2/6 424/2/6
f 421/2/6 422/2/6 427/2/6
f 427/2/6 422/2/6 428/2/6
f 424/2/6 425/2/6 429/2/6
f 429/2/6 425/2/6 430/2/6
f 426/2/6 427/2/6 431/2/6
f 431/2/6 427/2/6 432/2/6
f 433/2/6 434/2/6 437/2/6
f 437/2/6 434/2/6 438/2/6
f 435/2/6 436/2/6 439/2/6
f 439/2/6 436/2/6 440/2/6
f 441/2/6 442/2/6 445/2/6
f 445/2/6 442/2/6 446/2/6
f 443/2/6 444/2/6 447/2/6
f 447/2/6 444/2/6 448/2/6
f 449/2/6 450/2/6 453/2/6
f 453/2/6 450/2/6 454/2/6
f 451/2/6 452/2/6 455/2/6
f 455/2/6 452/2/6 456/2/6
f 457/2/6 458/2/6 460/2/6
f 460/2/6 458/2/6 461/2/6
f 459/2/6 460/2/6 463/2/6
f 461/2/6 462/2/6 463/2/6
f 460/2/6 461/2/6 463/2/6
f 463/2/6 462/2/6 464/2/6
f 464/2/6 462/2/6 465/2/6
f 465/2/6 462/2/6 466/2/6
f 464/2/6 465/2/6 467/2/6
f 467/2/6 465/2/6 468/2/6
