# MagicaVoxel @ Ephtracy

# group
o 

# material
mtllib enemy-6.mtl
usemtl palette

# normals
vn 0 1 0
vn 0 -1 0
vn 0 0 1
vn 0 0 -1
vn -1 0 0
vn 1 0 0

# texcoords
vt 0.708984 0.5
vt 0.919922 0.5

# verts
v 2.2 1.6 0.5
v 2.2 1.6 0
v 2.4 1.6 0.6
v 2.4 1.6 0.5
v 2.9 1.6 0.6
v 2.9 1.6 0
v 3.4 1.6 0.7
v 3.4 1.6 0.6
v 3.4 1.6 0
v 3.4 1.6 -0.2
v 4 1.6 0.7
v 4 1.6 0.6
v 4 1.6 0
v 4 1.6 -0.2
v 4.2 1.6 0.6
v 4.2 1.6 0
v 2.2 1.4 0
v 2.2 1.4 -0.2
v 2.9 1.4 0
v 2.9 1.4 -0.2
v 3.4 1.4 0
v 3.4 1.4 -0.2
v 4 1.4 0.7
v 4 1.4 0.6
v 4 1.4 0
v 4 1.4 -0.2
v 4.2 1.4 0.7
v 4.2 1.4 0.6
v 4.2 1.4 0
v 4.2 1.4 -0.2
v 2.3 0.9 0
v 2.3 0.9 -0.1
v 2.9 0.9 0
v 2.9 0.9 -0.1
v 3.4 0.9 0
v 3.4 0.9 -0.1
v 4 0.9 0
v 4 0.9 -0.1
v 4.1 0.9 0
v 4.1 0.9 -0.1
v 2.3 0.8 0.1
v 2.3 0.8 0
v 2.9 0.8 0.1
v 2.9 0.8 0
v 3.4 0.8 0.1
v 3.4 0.8 0
v 3.4 0.8 -0.1
v 3.5 0.8 0
v 3.5 0.8 -0.1
v 3.9 0.8 0
v 3.9 0.8 -0.1
v 4 0.8 0.6
v 4 0.8 0.5
v 4 0.8 0.1
v 4 0.8 0
v 4 0.8 -0.1
v 4.1 0.8 0.6
v 4.1 0.8 0.5
v 4.1 0.8 0.1
v 4.1 0.8 0
v 2.3 0.7 0.4
v 2.3 0.7 0.1
v 2.4 0.7 0.5
v 2.4 0.7 0.4
v 2.9 0.7 0.5
v 2.9 0.7 0.1
v 3.4 0.7 0.6
v 3.4 0.7 0.5
v 3.4 0.7 0.1
v 3.4 0.7 0
v 3.5 0.7 0
v 3.5 0.7 -0.1
v 3.9 0.7 0
v 3.9 0.7 -0.1
v 4 0.7 0.6
v 4 0.7 0.5
v 4 0.7 0.1
v 4 0.7 0
v 4.1 0.7 0.5
v 4.1 0.7 0.1
v 2.3 1.5 0.4
v 2.3 1.5 0.1
v 2.4 1.5 0.5
v 2.4 1.5 0.4
v 2.9 1.5 0.5
v 2.9 1.5 0.1
v 3.4 1.5 0.6
v 3.4 1.5 0.5
v 3.4 1.5 0.1
v 3.4 1.5 0
v 3.5 1.5 0
v 3.5 1.5 -0.1
v 3.9 1.5 0
v 3.9 1.5 -0.1
v 4 1.5 0.6
v 4 1.5 0.5
v 4 1.5 0.1
v 4 1.5 0
v 4.1 1.5 0.5
v 4.1 1.5 0.1
v 2.3 1.4 0.1
v 2.3 1.4 0
v 2.9 1.4 0.1
v 2.9 1.4 0
v 3.4 1.4 0.1
v 3.4 1.4 0
v 3.4 1.4 -0.1
v 3.5 1.4 0
v 3.5 1.4 -0.1
v 3.9 1.4 0
v 3.9 1.4 -0.1
v 4 1.4 0.6
v 4 1.4 0.5
v 4 1.4 0.1
v 4 1.4 0
v 4 1.4 -0.1
v 4.1 1.4 0.6
v 4.1 1.4 0.5
v 4.1 1.4 0.1
v 4.1 1.4 0
v 2.3 1.3 0
v 2.3 1.3 -0.1
v 2.9 1.3 0
v 2.9 1.3 -0.1
v 3.4 1.3 0
v 3.4 1.3 -0.1
v 4 1.3 0
v 4 1.3 -0.1
v 4.1 1.3 0
v 4.1 1.3 -0.1
v 2.2 0.8 0
v 2.2 0.8 -0.2
v 2.9 0.8 0
v 2.9 0.8 -0.2
v 3.4 0.8 0
v 3.4 0.8 -0.2
v 4 0.8 0.7
v 4 0.8 0.6
v 4 0.8 0
v 4 0.8 -0.2
v 4.2 0.8 0.7
v 4.2 0.8 0.6
v 4.2 0.8 0
v 4.2 0.8 -0.2
v 2.2 0.6 0.5
v 2.2 0.6 0
v 2.4 0.6 0.6
v 2.4 0.6 0.5
v 2.9 0.6 0.6
v 2.9 0.6 0
v 3.4 0.6 0.7
v 3.4 0.6 0.6
v 3.4 0.6 0
v 3.4 0.6 -0.2
v 4 0.6 0.7
v 4 0.6 0.6
v 4 0.6 0
v 4 0.6 -0.2
v 4.2 0.6 0.6
v 4.2 0.6 0
v 3.4 1.6 0.7
v 4 1.6 0.7
v 4 1.4 0.7
v 4.2 1.4 0.7
v 4 0.8 0.7
v 4.2 0.8 0.7
v 3.4 0.6 0.7
v 4 0.6 0.7
v 2.4 1.6 0.6
v 2.9 1.6 0.6
v 3.4 1.6 0.6
v 4 1.6 0.6
v 4.2 1.6 0.6
v 4 1.4 0.6
v 4.2 1.4 0.6
v 4 0.8 0.6
v 4.2 0.8 0.6
v 2.4 0.6 0.6
v 2.9 0.6 0.6
v 3.4 0.6 0.6
v 4 0.6 0.6
v 4.2 0.6 0.6
v 2.2 1.6 0.5
v 2.4 1.6 0.5
v 2.2 0.6 0.5
v 2.4 0.6 0.5
v 2.3 1.5 0.1
v 2.9 1.5 0.1
v 3.4 1.5 0.1
v 4 1.5 0.1
v 4.1 1.5 0.1
v 2.3 1.4 0.1
v 2.9 1.4 0.1
v 3.4 1.4 0.1
v 4 1.4 0.1
v 4.1 1.4 0.1
v 2.3 0.8 0.1
v 2.9 0.8 0.1
v 3.4 0.8 0.1
v 4 0.8 0.1
v 4.1 0.8 0.1
v 2.3 0.7 0.1
v 2.9 0.7 0.1
v 3.4 0.7 0.1
v 4 0.7 0.1
v 4.1 0.7 0.1
v 3.4 1.5 0
v 3.5 1.5 0
v 3.9 1.5 0
v 4 1.5 0
v 2.3 1.4 0
v 2.9 1.4 0
v 3.4 1.4 0
v 3.5 1.4 0
v 3.9 1.4 0
v 4 1.4 0
v 4.1 1.4 0
v 2.3 1.3 0
v 2.9 1.3 0
v 3.4 1.3 0
v 4 1.3 0
v 4.1 1.3 0
v 2.3 0.9 0
v 2.9 0.9 0
v 3.4 0.9 0
v 4 0.9 0
v 4.1 0.9 0
v 2.3 0.8 0
v 2.9 0.8 0
v 3.4 0.8 0
v 3.5 0.8 0
v 3.9 0.8 0
v 4 0.8 0
v 4.1 0.8 0
v 3.4 0.7 0
v 3.5 0.7 0
v 3.9 0.7 0
v 4 0.7 0
v 3.5 1.5 -0.1
v 3.9 1.5 -0.1
v 3.4 1.4 -0.1
v 3.5 1.4 -0.1
v 3.9 1.4 -0.1
v 4 1.4 -0.1
v 2.3 1.3 -0.1
v 2.9 1.3 -0.1
v 3.4 1.3 -0.1
v 4 1.3 -0.1
v 4.1 1.3 -0.1
v 2.3 0.9 -0.1
v 2.9 0.9 -0.1
v 3.4 0.9 -0.1
v 4 0.9 -0.1
v 4.1 0.9 -0.1
v 3.4 0.8 -0.1
v 3.5 0.8 -0.1
v 3.9 0.8 -0.1
v 4 0.8 -0.1
v 3.5 0.7 -0.1
v 3.9 0.7 -0.1
v 3.4 1.5 0.6
v 4 1.5 0.6
v 4 1.4 0.6
v 4.1 1.4 0.6
v 4 0.8 0.6
v 4.1 0.8 0.6
v 3.4 0.7 0.6
v 4 0.7 0.6
v 2.4 1.5 0.5
v 2.9 1.5 0.5
v 3.4 1.5 0.5
v 4 1.5 0.5
v 4.1 1.5 0.5
v 4 1.4 0.5
v 4.1 1.4 0.5
v 4 0.8 0.5
v 4.1 0.8 0.5
v 2.4 0.7 0.5
v 2.9 0.7 0.5
v 3.4 0.7 0.5
v 4 0.7 0.5
v 4.1 0.7 0.5
v 2.3 1.5 0.4
v 2.4 1.5 0.4
v 2.3 0.7 0.4
v 2.4 0.7 0.4
v 2.2 1.6 0
v 2.9 1.6 0
v 3.4 1.6 0
v 4 1.6 0
v 4.2 1.6 0
v 2.2 1.4 0
v 2.9 1.4 0
v 3.4 1.4 0
v 4 1.4 0
v 4.2 1.4 0
v 2.2 0.8 0
v 2.9 0.8 0
v 3.4 0.8 0
v 4 0.8 0
v 4.2 0.8 0
v 2.2 0.6 0
v 2.9 0.6 0
v 3.4 0.6 0
v 4 0.6 0
v 4.2 0.6 0
v 3.4 1.6 -0.2
v 4 1.6 -0.2
v 2.2 1.4 -0.2
v 2.9 1.4 -0.2
v 3.4 1.4 -0.2
v 4 1.4 -0.2
v 4.2 1.4 -0.2
v 2.2 0.8 -0.2
v 2.9 0.8 -0.2
v 3.4 0.8 -0.2
v 4 0.8 -0.2
v 4.2 0.8 -0.2
v 3.4 0.6 -0.2
v 4 0.6 -0.2
v 2.2 1.6 0.5
v 2.2 0.6 0.5
v 2.2 1.6 0
v 2.2 1.4 0
v 2.2 0.8 0
v 2.2 0.6 0
v 2.2 1.4 -0.2
v 2.2 0.8 -0.2
v 2.4 1.6 0.6
v 2.4 0.6 0.6
v 2.4 1.6 0.5
v 2.4 0.6 0.5
v 3.4 1.6 0.7
v 3.4 0.6 0.7
v 3.4 1.6 0.6
v 3.4 0.6 0.6
v 3.4 1.6 0
v 3.4 1.4 0
v 3.4 0.8 0
v 3.4 0.6 0
v 3.4 1.6 -0.2
v 3.4 1.4 -0.2
v 3.4 0.8 -0.2
v 3.4 0.6 -0.2
v 3.9 1.5 0
v 3.9 1.4 0
v 3.9 0.8 0
v 3.9 0.7 0
v 3.9 1.5 -0.1
v 3.9 1.4 -0.1
v 3.9 0.8 -0.1
v 3.9 0.7 -0.1
v 4 1.5 0.6
v 4 1.4 0.6
v 4 0.8 0.6
v 4 0.7 0.6
v 4 1.5 0.5
v 4 1.4 0.5
v 4 0.8 0.5
v 4 0.7 0.5
v 4 1.5 0.1
v 4 1.4 0.1
v 4 0.8 0.1
v 4 0.7 0.1
v 4 1.5 0
v 4 1.4 0
v 4 1.3 0
v 4 0.9 0
v 4 0.8 0
v 4 0.7 0
v 4 1.4 -0.1
v 4 1.3 -0.1
v 4 0.9 -0.1
v 4 0.8 -0.1
v 4.1 1.4 0.6
v 4.1 0.8 0.6
v 4.1 1.5 0.5
v 4.1 1.4 0.5
v 4.1 0.8 0.5
v 4.1 0.7 0.5
v 4.1 1.5 0.1
v 4.1 1.4 0.1
v 4.1 0.8 0.1
v 4.1 0.7 0.1
v 4.1 1.4 0
v 4.1 1.3 0
v 4.1 0.9 0
v 4.1 0.8 0
v 4.1 1.3 -0.1
v 4.1 0.9 -0.1
v 2.3 1.5 0.4
v 2.3 0.7 0.4
v 2.3 1.5 0.1
v 2.3 1.4 0.1
v 2.3 0.8 0.1
v 2.3 0.7 0.1
v 2.3 1.4 0
v 2.3 1.3 0
v 2.3 0.9 0
v 2.3 0.8 0
v 2.3 1.3 -0.1
v 2.3 0.9 -0.1
v 2.4 1.5 0.5
v 2.4 0.7 0.5
v 2.4 1.5 0.4
v 2.4 0.7 0.4
v 3.4 1.5 0.6
v 3.4 0.7 0.6
v 3.4 1.5 0.5
v 3.4 0.7 0.5
v 3.4 1.5 0.1
v 3.4 1.4 0.1
v 3.4 0.8 0.1
v 3.4 0.7 0.1
v 3.4 1.5 0
v 3.4 1.4 0
v 3.4 1.3 0
v 3.4 0.9 0
v 3.4 0.8 0
v 3.4 0.7 0
v 3.4 1.4 -0.1
v 3.4 1.3 -0.1
v 3.4 0.9 -0.1
v 3.4 0.8 -0.1
v 3.5 1.5 0
v 3.5 1.4 0
v 3.5 0.8 0
v 3.5 0.7 0
v 3.5 1.5 -0.1
v 3.5 1.4 -0.1
v 3.5 0.8 -0.1
v 3.5 0.7 -0.1
v 4 1.6 0.7
v 4 1.4 0.7
v 4 0.8 0.7
v 4 0.6 0.7
v 4 1.6 0.6
v 4 1.4 0.6
v 4 0.8 0.6
v 4 0.6 0.6
v 4 1.6 0
v 4 1.4 0
v 4 0.8 0
v 4 0.6 0
v 4 1.6 -0.2
v 4 1.4 -0.2
v 4 0.8 -0.2
v 4 0.6 -0.2
v 4.2 1.4 0.7
v 4.2 0.8 0.7
v 4.2 1.6 0.6
v 4.2 1.4 0.6
v 4.2 0.8 0.6
v 4.2 0.6 0.6
v 4.2 1.6 0
v 4.2 1.4 0
v 4.2 0.8 0
v 4.2 0.6 0
v 4.2 1.4 -0.2
v 4.2 0.8 -0.2

# faces
f 4/1/1 2/1/1 1/1/1
f 5/1/1 4/1/1 3/1/1
f 6/1/1 2/1/1 4/1/1
f 6/1/1 4/1/1 5/1/1
f 8/2/1 6/2/1 5/2/1
f 9/2/1 6/2/1 8/2/1
f 11/2/1 9/2/1 8/2/1
f 11/2/1 10/2/1 9/2/1
f 11/2/1 8/2/1 7/2/1
f 12/2/1 10/2/1 11/2/1
f 13/2/1 10/2/1 12/2/1
f 14/2/1 10/2/1 13/2/1
f 15/2/1 13/2/1 12/2/1
f 16/2/1 13/2/1 15/2/1
f 19/1/1 18/1/1 17/1/1
f 20/1/1 18/1/1 19/1/1
f 21/2/1 20/2/1 19/2/1
f 22/2/1 20/2/1 21/2/1
f 27/2/1 24/2/1 23/2/1
f 28/2/1 24/2/1 27/2/1
f 29/2/1 26/2/1 25/2/1
f 30/2/1 26/2/1 29/2/1
f 33/1/1 32/1/1 31/1/1
f 34/1/1 32/1/1 33/1/1
f 35/2/1 34/2/1 33/2/1
f 36/2/1 34/2/1 35/2/1
f 39/2/1 38/2/1 37/2/1
f 40/2/1 38/2/1 39/2/1
f 43/1/1 42/1/1 41/1/1
f 44/1/1 42/1/1 43/1/1
f 45/2/1 44/2/1 43/2/1
f 46/2/1 44/2/1 45/2/1
f 48/2/1 47/2/1 46/2/1
f 49/2/1 47/2/1 48/2/1
f 55/2/1 51/2/1 50/2/1
f 56/2/1 51/2/1 55/2/1
f 57/2/1 53/2/1 52/2/1
f 58/2/1 53/2/1 57/2/1
f 59/2/1 55/2/1 54/2/1
f 60/2/1 55/2/1 59/2/1
f 64/1/1 62/1/1 61/1/1
f 65/1/1 64/1/1 63/1/1
f 66/1/1 62/1/1 64/1/1
f 66/1/1 64/1/1 65/1/1
f 68/2/1 66/2/1 65/2/1
f 69/2/1 66/2/1 68/2/1
f 71/2/1 69/2/1 68/2/1
f 71/2/1 70/2/1 69/2/1
f 71/2/1 68/2/1 67/2/1
f 73/2/1 71/2/1 67/2/1
f 73/2/1 72/2/1 71/2/1
f 74/2/1 72/2/1 73/2/1
f 75/2/1 73/2/1 67/2/1
f 76/2/1 73/2/1 75/2/1
f 77/2/1 73/2/1 76/2/1
f 78/2/1 73/2/1 77/2/1
f 79/2/1 77/2/1 76/2/1
f 80/2/1 77/2/1 79/2/1
f 81/1/2 82/1/2 84/1/2
f 83/1/2 84/1/2 85/1/2
f 84/1/2 82/1/2 86/1/2
f 85/1/2 84/1/2 86/1/2
f 85/2/2 86/2/2 88/2/2
f 88/2/2 86/2/2 89/2/2
f 88/2/2 89/2/2 91/2/2
f 89/2/2 90/2/2 91/2/2
f 87/2/2 88/2/2 91/2/2
f 87/2/2 91/2/2 93/2/2
f 91/2/2 92/2/2 93/2/2
f 93/2/2 92/2/2 94/2/2
f 87/2/2 93/2/2 95/2/2
f 95/2/2 93/2/2 96/2/2
f 96/2/2 93/2/2 97/2/2
f 97/2/2 93/2/2 98/2/2
f 96/2/2 97/2/2 99/2/2
f 99/2/2 97/2/2 100/2/2
f 101/1/2 102/1/2 103/1/2
f 103/1/2 102/1/2 104/1/2
f 103/2/2 104/2/2 105/2/2
f 105/2/2 104/2/2 106/2/2
f 106/2/2 107/2/2 108/2/2
f 108/2/2 107/2/2 109/2/2
f 110/2/2 111/2/2 115/2/2
f 115/2/2 111/2/2 116/2/2
f 112/2/2 113/2/2 117/2/2
f 117/2/2 113/2/2 118/2/2
f 114/2/2 115/2/2 119/2/2
f 119/2/2 115/2/2 120/2/2
f 121/1/2 122/1/2 123/1/2
f 123/1/2 122/1/2 124/1/2
f 123/2/2 124/2/2 125/2/2
f 125/2/2 124/2/2 126/2/2
f 127/2/2 128/2/2 129/2/2
f 129/2/2 128/2/2 130/2/2
f 131/1/2 132/1/2 133/1/2
f 133/1/2 132/1/2 134/1/2
f 133/2/2 134/2/2 135/2/2
f 135/2/2 134/2/2 136/2/2
f 137/2/2 138/2/2 141/2/2
f 141/2/2 138/2/2 142/2/2
f 139/2/2 140/2/2 143/2/2
f 143/2/2 140/2/2 144/2/2
f 145/1/2 146/1/2 148/1/2
f 147/1/2 148/1/2 149/1/2
f 148/1/2 146/1/2 150/1/2
f 149/1/2 148/1/2 150/1/2
f 149/2/2 150/2/2 152/2/2
f 152/2/2 150/2/2 153/2/2
f 152/2/2 153/2/2 155/2/2
f 153/2/2 154/2/2 155/2/2
f 151/2/2 152/2/2 155/2/2
f 155/2/2 154/2/2 156/2/2
f 156/2/2 154/2/2 157/2/2
f 157/2/2 154/2/2 158/2/2
f 156/2/2 157/2/2 159/2/2
f 159/2/2 157/2/2 160/2/2
f 163/2/3 162/2/3 161/2/3
f 165/2/3 163/2/3 161/2/3
f 165/2/3 164/2/3 163/2/3
f 166/2/3 164/2/3 165/2/3
f 167/2/3 165/2/3 161/2/3
f 168/2/3 165/2/3 167/2/3
f 174/2/3 173/2/3 172/2/3
f 175/2/3 173/2/3 174/2/3
f 178/1/3 170/1/3 169/1/3
f 179/2/3 171/2/3 170/2/3
f 179/1/3 170/1/3 178/1/3
f 180/2/3 171/2/3 179/2/3
f 181/2/3 177/2/3 176/2/3
f 182/2/3 177/2/3 181/2/3
f 185/1/3 184/1/3 183/1/3
f 186/1/3 184/1/3 185/1/3
f 192/1/3 188/1/3 187/1/3
f 193/2/3 189/2/3 188/2/3
f 193/1/3 188/1/3 192/1/3
f 194/2/3 189/2/3 193/2/3
f 195/2/3 191/2/3 190/2/3
f 196/2/3 191/2/3 195/2/3
f 202/1/3 198/1/3 197/1/3
f 203/2/3 199/2/3 198/2/3
f 203/1/3 198/1/3 202/1/3
f 204/2/3 199/2/3 203/2/3
f 205/2/3 201/2/3 200/2/3
f 206/2/3 201/2/3 205/2/3
f 213/2/3 208/2/3 207/2/3
f 214/2/3 208/2/3 213/2/3
f 215/2/3 210/2/3 209/2/3
f 216/2/3 210/2/3 215/2/3
f 218/1/3 212/1/3 211/1/3
f 219/2/3 213/2/3 212/2/3
f 219/1/3 212/1/3 218/1/3
f 220/2/3 213/2/3 219/2/3
f 221/2/3 217/2/3 216/2/3
f 222/2/3 217/2/3 221/2/3
f 228/1/3 224/1/3 223/1/3
f 229/2/3 225/2/3 224/2/3
f 229/1/3 224/1/3 228/1/3
f 230/2/3 225/2/3 229/2/3
f 233/2/3 227/2/3 226/2/3
f 234/2/3 227/2/3 233/2/3
f 235/2/3 231/2/3 230/2/3
f 236/2/3 231/2/3 235/2/3
f 237/2/3 233/2/3 232/2/3
f 238/2/3 233/2/3 237/2/3
f 242/2/3 240/2/3 239/2/3
f 243/2/3 240/2/3 242/2/3
f 247/2/3 242/2/3 241/2/3
f 247/2/3 243/2/3 242/2/3
f 247/2/3 244/2/3 243/2/3
f 248/2/3 244/2/3 247/2/3
f 250/1/3 246/1/3 245/1/3
f 251/2/3 249/2/3 248/2/3
f 251/1/3 246/1/3 250/1/3
f 251/2/3 247/2/3 246/2/3
f 251/2/3 248/2/3 247/2/3
f 252/2/3 249/2/3 251/2/3
f 253/2/3 249/2/3 252/2/3
f 254/2/3 249/2/3 253/2/3
f 255/2/3 253/2/3 252/2/3
f 256/2/3 253/2/3 255/2/3
f 257/2/3 253/2/3 256/2/3
f 258/2/3 253/2/3 257/2/3
f 259/2/3 257/2/3 256/2/3
f 260/2/3 257/2/3 259/2/3
f 261/2/4 262/2/4 263/2/4
f 261/2/4 263/2/4 265/2/4
f 263/2/4 264/2/4 265/2/4
f 265/2/4 264/2/4 266/2/4
f 261/2/4 265/2/4 267/2/4
f 267/2/4 265/2/4 268/2/4
f 272/2/4 273/2/4 274/2/4
f 274/2/4 273/2/4 275/2/4
f 269/1/4 270/1/4 278/1/4
f 270/2/4 271/2/4 279/2/4
f 278/1/4 270/1/4 279/1/4
f 279/2/4 271/2/4 280/2/4
f 276/2/4 277/2/4 281/2/4
f 281/2/4 277/2/4 282/2/4
f 283/1/4 284/1/4 285/1/4
f 285/1/4 284/1/4 286/1/4
f 287/1/4 288/1/4 292/1/4
f 288/2/4 289/2/4 293/2/4
f 292/1/4 288/1/4 293/1/4
f 293/2/4 289/2/4 294/2/4
f 290/2/4 291/2/4 295/2/4
f 295/2/4 291/2/4 296/2/4
f 297/1/4 298/1/4 302/1/4
f 298/2/4 299/2/4 303/2/4
f 302/1/4 298/1/4 303/1/4
f 303/2/4 299/2/4 304/2/4
f 300/2/4 301/2/4 305/2/4
f 305/2/4 301/2/4 306/2/4
f 307/2/4 308/2/4 311/2/4
f 311/2/4 308/2/4 312/2/4
f 309/1/4 310/1/4 314/1/4
f 312/2/4 313/2/4 315/2/4
f 314/1/4 310/1/4 315/1/4
f 310/2/4 311/2/4 315/2/4
f 311/2/4 312/2/4 315/2/4
f 315/2/4 313/2/4 316/2/4
f 316/2/4 313/2/4 317/2/4
f 317/2/4 313/2/4 318/2/4
f 316/2/4 317/2/4 319/2/4
f 319/2/4 317/2/4 320/2/4
f 323/1/5 322/1/5 321/1/5
f 324/1/5 322/1/5 323/1/5
f 325/1/5 322/1/5 324/1/5
f 326/1/5 322/1/5 325/1/5
f 327/1/5 325/1/5 324/1/5
f 328/1/5 325/1/5 327/1/5
f 331/1/5 330/1/5 329/1/5
f 332/1/5 330/1/5 331/1/5
f 335/2/5 334/2/5 333/2/5
f 336/2/5 334/2/5 335/2/5
f 341/2/5 338/2/5 337/2/5
f 342/2/5 338/2/5 341/2/5
f 343/2/5 340/2/5 339/2/5
f 344/2/5 340/2/5 343/2/5
f 349/2/5 346/2/5 345/2/5
f 350/2/5 346/2/5 349/2/5
f 351/2/5 348/2/5 347/2/5
f 352/2/5 348/2/5 351/2/5
f 357/2/5 354/2/5 353/2/5
f 358/2/5 354/2/5 357/2/5
f 359/2/5 356/2/5 355/2/5
f 360/2/5 356/2/5 359/2/5
f 365/2/5 362/2/5 361/2/5
f 366/2/5 362/2/5 365/2/5
f 369/2/5 364/2/5 363/2/5
f 370/2/5 364/2/5 369/2/5
f 371/2/5 367/2/5 366/2/5
f 372/2/5 367/2/5 371/2/5
f 373/2/5 369/2/5 368/2/5
f 374/2/5 369/2/5 373/2/5
f 378/2/5 376/2/5 375/2/5
f 379/2/5 376/2/5 378/2/5
f 381/2/5 378/2/5 377/2/5
f 381/2/5 380/2/5 379/2/5
f 381/2/5 379/2/5 378/2/5
f 382/2/5 380/2/5 381/2/5
f 383/2/5 380/2/5 382/2/5
f 384/2/5 380/2/5 383/2/5
f 385/2/5 383/2/5 382/2/5
f 386/2/5 383/2/5 385/2/5
f 387/2/5 383/2/5 386/2/5
f 388/2/5 383/2/5 387/2/5
f 389/2/5 387/2/5 386/2/5
f 390/2/5 387/2/5 389/2/5
f 391/1/6 392/1/6 393/1/6
f 393/1/6 392/1/6 394/1/6
f 394/1/6 392/1/6 395/1/6
f 395/1/6 392/1/6 396/1/6
f 394/1/6 395/1/6 397/1/6
f 397/1/6 395/1/6 398/1/6
f 398/1/6 395/1/6 399/1/6
f 399/1/6 395/1/6 400/1/6
f 398/1/6 399/1/6 401/1/6
f 401/1/6 399/1/6 402/1/6
f 403/1/6 404/1/6 405/1/6
f 405/1/6 404/1/6 406/1/6
f 407/2/6 408/2/6 409/2/6
f 409/2/6 408/2/6 410/2/6
f 411/2/6 412/2/6 415/2/6
f 415/2/6 412/2/6 416/2/6
f 413/2/6 414/2/6 419/2/6
f 419/2/6 414/2/6 420/2/6
f 416/2/6 417/2/6 421/2/6
f 421/2/6 417/2/6 422/2/6
f 418/2/6 419/2/6 423/2/6
f 423/2/6 419/2/6 424/2/6
f 425/2/6 426/2/6 429/2/6
f 429/2/6 426/2/6 430/2/6
f 427/2/6 428/2/6 431/2/6
f 431/2/6 428/2/6 432/2/6
f 433/2/6 434/2/6 437/2/6
f 437/2/6 434/2/6 438/2/6
f 435/2/6 436/2/6 439/2/6
f 439/2/6 436/2/6 440/2/6
f 441/2/6 442/2/6 445/2/6
f 445/2/6 442/2/6 446/2/6
f 443/2/6 444/2/6 447/2/6
f 447/2/6 444/2/6 448/2/6
f 449/2/6 450/2/6 452/2/6
f 452/2/6 450/2/6 453/2/6
f 451/2/6 452/2/6 455/2/6
f 453/2/6 454/2/6 455/2/6
f 452/2/6 453/2/6 455/2/6
f 455/2/6 454/2/6 456/2/6
f 456/2/6 454/2/6 457/2/6
f 457/2/6 454/2/6 458/2/6
f 456/2/6 457/2/6 459/2/6
f 459/2/6 457/2/6 460/2/6
