# MagicaVoxel @ Ephtracy

# group
o 

# material
mtllib enemy-1.mtl
usemtl palette

# normals
vn -1 0 0
vn 1 0 0
vn 0 0 1
vn 0 0 -1
vn 0 -1 0
vn 0 1 0

# texcoords
vt 0.380859 0.5
vt 0.384766 0.5
vt 0.919922 0.5
vt 0.923828 0.5

# verts
v 0.2 -4.7 1
v 0.2 -4.7 0.1
v 0.2 -4.7 -0.0999999
v 0.2 -4.7 -0.2
v 0.2 -4.6 1
v 0.2 -4.6 0.1
v 0.2 -4.6 -0.0999999
v 0.2 -4.6 -0.2
v 0.2 -4.5 0.1
v 0.2 -4.5 -0.0999999
v 0.2 -4.1 1
v 0.2 -4.1 0.9
v 0.2 -4 0.9
v 0.2 -4 0.8
v 0.2 -3.9 0.8
v 0.2 -3.9 0.7
v 0.2 -3.8 0.7
v 0.2 -3.8 0.5
v 0.2 -3.2 0.5
v 0.2 -3.2 -0.2
v 0.3 -4.7 1.1
v 0.3 -4.7 1
v 0.3 -4.7 -0.2
v 0.3 -4.7 -0.3
v 0.3 -4.6 1.1
v 0.3 -4.6 1
v 0.3 -4.6 -0.2
v 0.3 -4.6 -0.3
v 0.3 -4.1 1.1
v 0.3 -4.1 1
v 0.3 -4.1 0.9
v 0.3 -4 1
v 0.3 -4 0.9
v 0.3 -4 0.8
v 0.3 -3.9 0.9
v 0.3 -3.9 0.8
v 0.3 -3.9 0.7
v 0.3 -3.8 0.8
v 0.3 -3.8 0.7
v 0.3 -3.8 0.6
v 0.3 -3.8 0.5
v 0.3 -3.2 0.6
v 0.3 -3.2 0.5
v 0.3 -3.2 0.4
v 0.3 -3.2 -0.2
v 0.3 -3.2 -0.3
v 0.3 -2.7 0.6
v 0.3 -2.7 0.5
v 0.3 -2.7 0.4
v 0.3 -2.7 -0.2
v 0.3 -2.7 -0.3
v 0.3 -2.5 0.5
v 0.3 -2.5 -0.3
v 0.3 -2.1 0.5
v 0.3 -2.1 -0.3
v 0.3 -1.9 0.6
v 0.3 -1.9 0.5
v 0.3 -1.9 -0.3
v 0.4 -4.7 1.2
v 0.4 -4.7 1.1
v 0.4 -4.7 -0.3
v 0.4 -4.7 -0.4
v 0.4 -4.6 1.2
v 0.4 -4.6 1.1
v 0.4 -4.6 -0.3
v 0.4 -4.6 -0.4
v 0.4 -4.1 1.2
v 0.4 -4.1 1.1
v 0.4 -4.1 1
v 0.4 -4 1.1
v 0.4 -4 1
v 0.4 -4 0.9
v 0.4 -3.9 1
v 0.4 -3.9 0.9
v 0.4 -3.9 0.8
v 0.4 -3.8 0.9
v 0.4 -3.8 0.8
v 0.4 -3.8 0.7
v 0.4 -3.8 0.6
v 0.4 -3.2 0.7
v 0.4 -3.2 0.6
v 0.4 -3.2 0.5
v 0.4 -3.2 0.4
v 0.4 -3.2 -0.2
v 0.4 -3.2 -0.3
v 0.4 -3.2 -0.4
v 0.4 -2.7 0.7
v 0.4 -2.7 0.6
v 0.4 -2.7 0.5
v 0.4 -2.7 0.4
v 0.4 -2.7 -0.2
v 0.4 -2.7 -0.3
v 0.4 -1.9 0.7
v 0.4 -1.9 0.6
v 0.9 -4.6 0.6
v 0.9 -4.6 0.5
v 0.9 -4.6 -0.2
v 0.9 -4.6 -0.3
v 0.9 -3.8 0.6
v 0.9 -3.8 0.5
v 0.9 -3.6 0.6
v 0.9 -3.6 0.5
v 0.9 -3.6 0.4
v 0.9 -3.6 0.3
v 0.9 -3.5 0.4
v 0.9 -3.5 0.3
v 0.9 -3.5 -0.2
v 0.9 -3.5 -0.3
v 1 -4.6 0.5
v 1 -4.6 0.1
v 1 -4.6 -0.0999999
v 1 -4.6 -0.2
v 1 -4.5 0.1
v 1 -4.5 -0.0999999
v 1 -3.8 0.5
v 1 -3.6 0.5
v 1 -3.6 0.4
v 1 -3.6 0.3
v 1 -3.5 0.3
v 1 -3.5 -0.2
v 0.3 -4.6 0.5
v 0.3 -4.6 0.1
v 0.3 -4.6 -0.0999999
v 0.3 -4.6 -0.2
v 0.3 -4.5 0.1
v 0.3 -4.5 -0.0999999
v 0.3 -3.8 0.5
v 0.3 -3.6 0.5
v 0.3 -3.6 0.4
v 0.3 -3.6 0.3
v 0.3 -3.5 0.3
v 0.3 -3.5 -0.2
v 0.4 -4.6 0.6
v 0.4 -4.6 0.5
v 0.4 -4.6 -0.2
v 0.4 -4.6 -0.3
v 0.4 -3.8 0.6
v 0.4 -3.8 0.5
v 0.4 -3.6 0.6
v 0.4 -3.6 0.5
v 0.4 -3.6 0.4
v 0.4 -3.6 0.3
v 0.4 -3.5 0.4
v 0.4 -3.5 0.3
v 0.4 -3.5 -0.2
v 0.4 -3.5 -0.3
v 0.9 -4.7 1.2
v 0.9 -4.7 1.1
v 0.9 -4.7 -0.3
v 0.9 -4.7 -0.4
v 0.9 -4.6 1.2
v 0.9 -4.6 1.1
v 0.9 -4.6 -0.3
v 0.9 -4.6 -0.4
v 0.9 -4.1 1.2
v 0.9 -4.1 1.1
v 0.9 -4.1 1
v 0.9 -4 1.1
v 0.9 -4 1
v 0.9 -4 0.9
v 0.9 -3.9 1
v 0.9 -3.9 0.9
v 0.9 -3.9 0.8
v 0.9 -3.8 0.9
v 0.9 -3.8 0.8
v 0.9 -3.8 0.7
v 0.9 -3.8 0.6
v 0.9 -3.2 0.7
v 0.9 -3.2 0.6
v 0.9 -3.2 0.5
v 0.9 -3.2 0.4
v 0.9 -3.2 -0.2
v 0.9 -3.2 -0.3
v 0.9 -3.2 -0.4
v 0.9 -2.7 0.7
v 0.9 -2.7 0.6
v 0.9 -2.7 0.5
v 0.9 -2.7 0.4
v 0.9 -2.7 -0.2
v 0.9 -2.7 -0.3
v 0.9 -1.9 0.7
v 0.9 -1.9 0.6
v 1 -4.7 1.1
v 1 -4.7 1
v 1 -4.7 -0.2
v 1 -4.7 -0.3
v 1 -4.6 1.1
v 1 -4.6 1
v 1 -4.6 -0.2
v 1 -4.6 -0.3
v 1 -4.1 1.1
v 1 -4.1 1
v 1 -4.1 0.9
v 1 -4 1
v 1 -4 0.9
v 1 -4 0.8
v 1 -3.9 0.9
v 1 -3.9 0.8
v 1 -3.9 0.7
v 1 -3.8 0.8
v 1 -3.8 0.7
v 1 -3.8 0.6
v 1 -3.8 0.5
v 1 -3.2 0.6
v 1 -3.2 0.5
v 1 -3.2 0.4
v 1 -3.2 -0.2
v 1 -3.2 -0.3
v 1 -2.7 0.6
v 1 -2.7 0.5
v 1 -2.7 0.4
v 1 -2.7 -0.2
v 1 -2.7 -0.3
v 1 -2.5 0.5
v 1 -2.5 -0.3
v 1 -2.1 0.5
v 1 -2.1 -0.3
v 1 -1.9 0.6
v 1 -1.9 0.5
v 1 -1.9 -0.3
v 1.1 -4.7 1
v 1.1 -4.7 0.1
v 1.1 -4.7 -0.0999999
v 1.1 -4.7 -0.2
v 1.1 -4.6 1
v 1.1 -4.6 0.1
v 1.1 -4.6 -0.0999999
v 1.1 -4.6 -0.2
v 1.1 -4.5 0.1
v 1.1 -4.5 -0.0999999
v 1.1 -4.1 1
v 1.1 -4.1 0.9
v 1.1 -4 0.9
v 1.1 -4 0.8
v 1.1 -3.9 0.8
v 1.1 -3.9 0.7
v 1.1 -3.8 0.7
v 1.1 -3.8 0.5
v 1.1 -3.2 0.5
v 1.1 -3.2 -0.2
v 0.4 -4.7 1.2
v 0.4 -4.6 1.2
v 0.4 -4.1 1.2
v 0.9 -4.7 1.2
v 0.9 -4.6 1.2
v 0.9 -4.1 1.2
v 0.3 -4.7 1.1
v 0.3 -4.6 1.1
v 0.3 -4.1 1.1
v 0.4 -4.7 1.1
v 0.4 -4.6 1.1
v 0.4 -4.1 1.1
v 0.4 -4 1.1
v 0.9 -4.7 1.1
v 0.9 -4.6 1.1
v 0.9 -4.1 1.1
v 0.9 -4 1.1
v 1 -4.7 1.1
v 1 -4.6 1.1
v 1 -4.1 1.1
v 0.2 -4.7 1
v 0.2 -4.6 1
v 0.2 -4.1 1
v 0.3 -4.7 1
v 0.3 -4.6 1
v 0.3 -4.1 1
v 0.3 -4 1
v 0.4 -4.1 1
v 0.4 -4 1
v 0.4 -3.9 1
v 0.9 -4.1 1
v 0.9 -4 1
v 0.9 -3.9 1
v 1 -4.7 1
v 1 -4.6 1
v 1 -4.1 1
v 1 -4 1
v 1.1 -4.7 1
v 1.1 -4.6 1
v 1.1 -4.1 1
v 0.2 -4.1 0.9
v 0.2 -4 0.9
v 0.3 -4.1 0.9
v 0.3 -4 0.9
v 0.3 -3.9 0.9
v 0.4 -4 0.9
v 0.4 -3.9 0.9
v 0.4 -3.8 0.9
v 0.9 -4 0.9
v 0.9 -3.9 0.9
v 0.9 -3.8 0.9
v 1 -4.1 0.9
v 1 -4 0.9
v 1 -3.9 0.9
v 1.1 -4.1 0.9
v 1.1 -4 0.9
v 0.2 -4 0.8
v 0.2 -3.9 0.8
v 0.3 -4 0.8
v 0.3 -3.9 0.8
v 0.3 -3.8 0.8
v 0.4 -3.9 0.8
v 0.4 -3.8 0.8
v 0.9 -3.9 0.8
v 0.9 -3.8 0.8
v 1 -4 0.8
v 1 -3.9 0.8
v 1 -3.8 0.8
v 1.1 -4 0.8
v 1.1 -3.9 0.8
v 0.2 -3.9 0.7
v 0.2 -3.8 0.7
v 0.3 -3.9 0.7
v 0.3 -3.8 0.7
v 0.4 -3.8 0.7
v 0.4 -3.2 0.7
v 0.4 -2.7 0.7
v 0.4 -1.9 0.7
v 0.9 -3.8 0.7
v 0.9 -3.2 0.7
v 0.9 -2.7 0.7
v 0.9 -1.9 0.7
v 1 -3.9 0.7
v 1 -3.8 0.7
v 1.1 -3.9 0.7
v 1.1 -3.8 0.7
v 0.3 -3.8 0.6
v 0.3 -3.2 0.6
v 0.3 -2.7 0.6
v 0.3 -1.9 0.6
v 0.4 -3.8 0.6
v 0.4 -3.2 0.6
v 0.4 -2.7 0.6
v 0.4 -1.9 0.6
v 0.9 -3.8 0.6
v 0.9 -3.2 0.6
v 0.9 -2.7 0.6
v 0.9 -1.9 0.6
v 1 -3.8 0.6
v 1 -3.2 0.6
v 1 -2.7 0.6
v 1 -1.9 0.6
v 0.2 -3.8 0.5
v 0.2 -3.2 0.5
v 0.3 -3.8 0.5
v 0.3 -3.2 0.5
v 0.4 -3.2 0.5
v 0.4 -2.7 0.5
v 0.9 -3.2 0.5
v 0.9 -2.7 0.5
v 1 -3.8 0.5
v 1 -3.2 0.5
v 1.1 -3.8 0.5
v 1.1 -3.2 0.5
v 0.3 -3.2 0.4
v 0.3 -2.7 0.4
v 0.4 -3.2 0.4
v 0.4 -2.7 0.4
v 0.9 -3.2 0.4
v 0.9 -2.7 0.4
v 1 -3.2 0.4
v 1 -2.7 0.4
v 0.3 -4.6 0.1
v 0.3 -4.5 0.1
v 1 -4.6 0.1
v 1 -4.5 0.1
v 0.2 -4.7 -0.0999999
v 0.2 -4.6 -0.0999999
v 1.1 -4.7 -0.0999999
v 1.1 -4.6 -0.0999999
v 0.3 -4.6 -0.2
v 0.3 -3.5 -0.2
v 0.4 -4.6 -0.2
v 0.4 -3.5 -0.2
v 0.9 -4.6 -0.2
v 0.9 -3.5 -0.2
v 1 -4.6 -0.2
v 1 -3.5 -0.2
v 0.4 -4.6 -0.3
v 0.4 -3.5 -0.3
v 0.9 -4.6 -0.3
v 0.9 -3.5 -0.3
v 0.4 -4.6 0.6
v 0.4 -3.8 0.6
v 0.4 -3.6 0.6
v 0.9 -4.6 0.6
v 0.9 -3.8 0.6
v 0.9 -3.6 0.6
v 0.3 -4.6 0.5
v 0.3 -3.8 0.5
v 0.3 -3.6 0.5
v 0.4 -4.6 0.5
v 0.4 -3.8 0.5
v 0.4 -3.6 0.5
v 0.9 -4.6 0.5
v 0.9 -3.8 0.5
v 0.9 -3.6 0.5
v 1 -4.6 0.5
v 1 -3.8 0.5
v 1 -3.6 0.5
v 0.4 -3.6 0.4
v 0.4 -3.5 0.4
v 0.9 -3.6 0.4
v 0.9 -3.5 0.4
v 0.3 -3.6 0.3
v 0.3 -3.5 0.3
v 0.4 -3.6 0.3
v 0.4 -3.5 0.3
v 0.9 -3.6 0.3
v 0.9 -3.5 0.3
v 1 -3.6 0.3
v 1 -3.5 0.3
v 0.2 -4.7 0.1
v 0.2 -4.6 0.1
v 1.1 -4.7 0.1
v 1.1 -4.6 0.1
v 0.3 -4.6 -0.0999999
v 0.3 -4.5 -0.0999999
v 1 -4.6 -0.0999999
v 1 -4.5 -0.0999999
v 0.2 -4.7 -0.2
v 0.2 -4.6 -0.2
v 0.2 -3.2 -0.2
v 0.3 -4.7 -0.2
v 0.3 -4.6 -0.2
v 0.3 -3.2 -0.2
v 0.3 -2.7 -0.2
v 0.4 -3.2 -0.2
v 0.4 -2.7 -0.2
v 0.9 -3.2 -0.2
v 0.9 -2.7 -0.2
v 1 -4.7 -0.2
v 1 -4.6 -0.2
v 1 -3.2 -0.2
v 1 -2.7 -0.2
v 1.1 -4.7 -0.2
v 1.1 -4.6 -0.2
v 1.1 -3.2 -0.2
v 0.3 -4.7 -0.3
v 0.3 -4.6 -0.3
v 0.3 -3.2 -0.3
v 0.3 -2.7 -0.3
v 0.3 -2.5 -0.3
v 0.3 -2.1 -0.3
v 0.3 -1.9 -0.3
v 0.4 -4.7 -0.3
v 0.4 -4.6 -0.3
v 0.4 -3.2 -0.3
v 0.4 -2.7 -0.3
v 0.5 -2.7 -0.3
v 0.5 -2.5 -0.3
v 0.5 -2.1 -0.3
v 0.5 -1.9 -0.3
v 0.8 -2.7 -0.3
v 0.8 -2.5 -0.3
v 0.8 -2.1 -0.3
v 0.8 -1.9 -0.3
v 0.9 -4.7 -0.3
v 0.9 -4.6 -0.3
v 0.9 -3.2 -0.3
v 0.9 -2.7 -0.3
v 1 -4.7 -0.3
v 1 -4.6 -0.3
v 1 -3.2 -0.3
v 1 -2.7 -0.3
v 1 -2.5 -0.3
v 1 -2.1 -0.3
v 1 -1.9 -0.3
v 0.4 -4.7 -0.4
v 0.4 -4.6 -0.4
v 0.4 -3.2 -0.4
v 0.9 -4.7 -0.4
v 0.9 -4.6 -0.4
v 0.9 -3.2 -0.4
v 0.4 -4.7 1.2
v 0.9 -4.7 1.2
v 0.3 -4.7 1.1
v 0.4 -4.7 1.1
v 0.9 -4.7 1.1
v 1 -4.7 1.1
v 0.2 -4.7 1
v 0.3 -4.7 1
v 1 -4.7 1
v 1.1 -4.7 1
v 0.2 -4.7 0.1
v 1.1 -4.7 0.1
v 0.2 -4.7 -0.0999999
v 1.1 -4.7 -0.0999999
v 0.2 -4.7 -0.2
v 0.3 -4.7 -0.2
v 1 -4.7 -0.2
v 1.1 -4.7 -0.2
v 0.3 -4.7 -0.3
v 0.4 -4.7 -0.3
v 0.9 -4.7 -0.3
v 1 -4.7 -0.3
v 0.4 -4.7 -0.4
v 0.9 -4.7 -0.4
v 0.2 -4.6 0.1
v 1.1 -4.6 0.1
v 0.2 -4.6 -0.0999999
v 1.1 -4.6 -0.0999999
v 0.4 -3.6 0.6
v 0.9 -3.6 0.6
v 0.3 -3.6 0.5
v 0.4 -3.6 0.5
v 0.9 -3.6 0.5
v 1 -3.6 0.5
v 0.3 -3.6 0.4
v 0.4 -3.6 0.4
v 0.9 -3.6 0.4
v 1 -3.6 0.4
v 0.3 -3.6 0.3
v 0.4 -3.6 0.3
v 0.9 -3.6 0.3
v 1 -3.6 0.3
v 0.4 -3.5 0.4
v 0.9 -3.5 0.4
v 0.3 -3.5 0.3
v 0.4 -3.5 0.3
v 0.9 -3.5 0.3
v 1 -3.5 0.3
v 0.3 -3.5 -0.2
v 0.4 -3.5 -0.2
v 0.9 -3.5 -0.2
v 1 -3.5 -0.2
v 0.4 -3.5 -0.3
v 0.9 -3.5 -0.3
v 0.4 -2.7 0.7
v 0.9 -2.7 0.7
v 0.3 -2.7 0.6
v 0.4 -2.7 0.6
v 0.9 -2.7 0.6
v 1 -2.7 0.6
v 0.3 -2.7 0.5
v 0.4 -2.7 0.5
v 0.9 -2.7 0.5
v 1 -2.7 0.5
v 0.3 -2.7 0.4
v 0.4 -2.7 0.4
v 0.9 -2.7 0.4
v 1 -2.7 0.4
v 0.3 -2.7 -0.2
v 0.4 -2.7 -0.2
v 0.9 -2.7 -0.2
v 1 -2.7 -0.2
v 0.3 -2.7 -0.3
v 0.4 -2.7 -0.3
v 0.9 -2.7 -0.3
v 1 -2.7 -0.3
v 0.4 -4.6 0.6
v 0.9 -4.6 0.6
v 0.3 -4.6 0.5
v 0.4 -4.6 0.5
v 0.9 -4.6 0.5
v 1 -4.6 0.5
v 0.3 -4.6 0.1
v 1 -4.6 0.1
v 0.3 -4.6 -0.0999999
v 1 -4.6 -0.0999999
v 0.3 -4.6 -0.2
v 0.4 -4.6 -0.2
v 0.9 -4.6 -0.2
v 1 -4.6 -0.2
v 0.4 -4.6 -0.3
v 0.9 -4.6 -0.3
v 0.3 -4.5 0.1
v 1 -4.5 0.1
v 0.3 -4.5 -0.0999999
v 1 -4.5 -0.0999999
v 0.4 -4.1 1.2
v 0.9 -4.1 1.2
v 0.3 -4.1 1.1
v 0.4 -4.1 1.1
v 0.9 -4.1 1.1
v 1 -4.1 1.1
v 0.2 -4.1 1
v 0.3 -4.1 1
v 0.4 -4.1 1
v 0.9 -4.1 1
v 1 -4.1 1
v 1.1 -4.1 1
v 0.2 -4.1 0.9
v 0.3 -4.1 0.9
v 1 -4.1 0.9
v 1.1 -4.1 0.9
v 0.4 -4 1.1
v 0.9 -4 1.1
v 0.3 -4 1
v 0.4 -4 1
v 0.9 -4 1
v 1 -4 1
v 0.2 -4 0.9
v 0.3 -4 0.9
v 0.4 -4 0.9
v 0.9 -4 0.9
v 1 -4 0.9
v 1.1 -4 0.9
v 0.2 -4 0.8
v 0.3 -4 0.8
v 1 -4 0.8
v 1.1 -4 0.8
v 0.4 -3.9 1
v 0.9 -3.9 1
v 0.3 -3.9 0.9
v 0.4 -3.9 0.9
v 0.9 -3.9 0.9
v 1 -3.9 0.9
v 0.2 -3.9 0.8
v 0.3 -3.9 0.8
v 0.4 -3.9 0.8
v 0.9 -3.9 0.8
v 1 -3.9 0.8
v 1.1 -3.9 0.8
v 0.2 -3.9 0.7
v 0.3 -3.9 0.7
v 1 -3.9 0.7
v 1.1 -3.9 0.7
v 0.4 -3.8 0.9
v 0.9 -3.8 0.9
v 0.3 -3.8 0.8
v 0.4 -3.8 0.8
v 0.9 -3.8 0.8
v 1 -3.8 0.8
v 0.2 -3.8 0.7
v 0.3 -3.8 0.7
v 0.4 -3.8 0.7
v 0.9 -3.8 0.7
v 1 -3.8 0.7
v 1.1 -3.8 0.7
v 0.3 -3.8 0.6
v 0.4 -3.8 0.6
v 0.9 -3.8 0.6
v 1 -3.8 0.6
v 0.2 -3.8 0.5
v 0.3 -3.8 0.5
v 1 -3.8 0.5
v 1.1 -3.8 0.5
v 0.4 -3.2 0.7
v 0.9 -3.2 0.7
v 0.3 -3.2 0.6
v 0.4 -3.2 0.6
v 0.9 -3.2 0.6
v 1 -3.2 0.6
v 0.2 -3.2 0.5
v 0.3 -3.2 0.5
v 0.4 -3.2 0.5
v 0.9 -3.2 0.5
v 1 -3.2 0.5
v 1.1 -3.2 0.5
v 0.3 -3.2 0.4
v 0.4 -3.2 0.4
v 0.9 -3.2 0.4
v 1 -3.2 0.4
v 0.2 -3.2 -0.2
v 0.3 -3.2 -0.2
v 0.4 -3.2 -0.2
v 0.9 -3.2 -0.2
v 1 -3.2 -0.2
v 1.1 -3.2 -0.2
v 0.3 -3.2 -0.3
v 0.4 -3.2 -0.3
v 0.9 -3.2 -0.3
v 1 -3.2 -0.3
v 0.4 -3.2 -0.4
v 0.9 -3.2 -0.4
v 0.4 -1.9 0.7
v 0.9 -1.9 0.7
v 0.3 -1.9 0.6
v 0.4 -1.9 0.6
v 0.9 -1.9 0.6
v 1 -1.9 0.6
v 0.3 -1.9 0.5
v 0.4 -1.9 0.5
v 0.9 -1.9 0.5
v 1 -1.9 0.5
v 0.4 -1.9 -0.2
v 0.5 -1.9 -0.2
v 0.8 -1.9 -0.2
v 0.9 -1.9 -0.2
v 0.3 -1.9 -0.3
v 0.5 -1.9 -0.3
v 0.8 -1.9 -0.3
v 1 -1.9 -0.3

# faces
f 5/1/1 2/1/1 1/1/1
f 6/1/1 2/1/1 5/1/1
f 7/1/1 4/1/1 3/1/1
f 8/1/1 4/1/1 7/1/1
f 9/2/1 6/2/1 5/2/1
f 9/1/1 7/1/1 6/1/1
f 10/2/1 8/2/1 7/2/1
f 10/1/1 7/1/1 9/1/1
f 11/2/1 9/2/1 5/2/1
f 11/2/1 10/2/1 9/2/1
f 12/2/1 10/2/1 11/2/1
f 13/2/1 10/2/1 12/2/1
f 14/2/1 10/2/1 13/2/1
f 15/2/1 10/2/1 14/2/1
f 16/2/1 10/2/1 15/2/1
f 17/2/1 10/2/1 16/2/1
f 18/2/1 10/2/1 17/2/1
f 19/2/1 10/2/1 18/2/1
f 20/2/1 8/2/1 10/2/1
f 20/2/1 10/2/1 19/2/1
f 25/1/1 22/1/1 21/1/1
f 26/1/1 22/1/1 25/1/1
f 27/1/1 24/1/1 23/1/1
f 28/1/1 24/1/1 27/1/1
f 29/2/1 26/2/1 25/2/1
f 30/2/1 26/2/1 29/2/1
f 32/2/1 31/2/1 30/2/1
f 33/2/1 31/2/1 32/2/1
f 35/2/1 34/2/1 33/2/1
f 36/2/1 34/2/1 35/2/1
f 38/2/1 37/2/1 36/2/1
f 39/2/1 37/2/1 38/2/1
f 42/2/1 41/2/1 40/2/1
f 43/2/1 41/2/1 42/2/1
f 45/2/1 28/2/1 27/2/1
f 46/2/1 28/2/1 45/2/1
f 49/4/1 45/4/1 44/4/1
f 50/4/1 45/4/1 49/4/1
f 52/3/1 48/3/1 47/3/1
f 52/1/1 51/1/1 50/1/1
f 52/1/1 50/1/1 49/1/1
f 52/1/1 49/1/1 48/1/1
f 53/1/1 51/1/1 52/1/1
f 54/3/1 52/3/1 47/3/1
f 54/4/1 53/4/1 52/4/1
f 55/4/1 53/4/1 54/4/1
f 56/3/1 54/3/1 47/3/1
f 57/1/1 55/1/1 54/1/1
f 57/3/1 54/3/1 56/3/1
f 58/1/1 55/1/1 57/1/1
f 63/1/1 60/1/1 59/1/1
f 64/1/1 60/1/1 63/1/1
f 65/1/1 62/1/1 61/1/1
f 66/1/1 62/1/1 65/1/1
f 67/2/1 64/2/1 63/2/1
f 68/2/1 64/2/1 67/2/1
f 70/2/1 69/2/1 68/2/1
f 71/2/1 69/2/1 70/2/1
f 73/2/1 72/2/1 71/2/1
f 74/2/1 72/2/1 73/2/1
f 76/2/1 75/2/1 74/2/1
f 77/2/1 75/2/1 76/2/1
f 80/2/1 79/2/1 78/2/1
f 81/2/1 79/2/1 80/2/1
f 85/2/1 66/2/1 65/2/1
f 86/2/1 66/2/1 85/2/1
f 89/4/1 83/4/1 82/4/1
f 90/4/1 83/4/1 89/4/1
f 91/4/1 85/4/1 84/4/1
f 92/4/1 85/4/1 91/4/1
f 93/3/1 88/3/1 87/3/1
f 94/3/1 88/3/1 93/3/1
f 99/4/1 96/4/1 95/4/1
f 100/4/1 96/4/1 99/4/1
f 101/2/1 100/2/1 99/2/1
f 102/2/1 100/2/1 101/2/1
f 105/4/1 104/4/1 103/4/1
f 106/4/1 104/4/1 105/4/1
f 107/2/1 98/2/1 97/2/1
f 108/2/1 98/2/1 107/2/1
f 113/2/1 110/2/1 109/2/1
f 114/2/1 112/2/1 111/2/1
f 115/2/1 113/2/1 109/2/1
f 115/2/1 114/2/1 113/2/1
f 116/2/1 114/2/1 115/2/1
f 117/2/1 114/2/1 116/2/1
f 118/2/1 114/2/1 117/2/1
f 119/2/1 114/2/1 118/2/1
f 120/2/1 112/2/1 114/2/1
f 120/2/1 114/2/1 119/2/1
f 121/2/2 122/2/2 125/2/2
f 123/2/2 124/2/2 126/2/2
f 121/2/2 125/2/2 127/2/2
f 125/2/2 126/2/2 127/2/2
f 127/2/2 126/2/2 128/2/2
f 128/2/2 126/2/2 129/2/2
f 129/2/2 126/2/2 130/2/2
f 130/2/2 126/2/2 131/2/2
f 126/2/2 124/2/2 132/2/2
f 131/2/2 126/2/2 132/2/2
f 133/4/2 134/4/2 137/4/2
f 137/4/2 134/4/2 138/4/2
f 137/2/2 138/2/2 139/2/2
f 139/2/2 138/2/2 140/2/2
f 141/4/2 142/4/2 143/4/2
f 143/4/2 142/4/2 144/4/2
f 135/2/2 136/2/2 145/2/2
f 145/2/2 136/2/2 146/2/2
f 147/1/2 148/1/2 151/1/2
f 151/1/2 148/1/2 152/1/2
f 149/1/2 150/1/2 153/1/2
f 153/1/2 150/1/2 154/1/2
f 151/2/2 152/2/2 155/2/2
f 155/2/2 152/2/2 156/2/2
f 156/2/2 157/2/2 158/2/2
f 158/2/2 157/2/2 159/2/2
f 159/2/2 160/2/2 161/2/2
f 161/2/2 160/2/2 162/2/2
f 162/2/2 163/2/2 164/2/2
f 164/2/2 163/2/2 165/2/2
f 166/2/2 167/2/2 168/2/2
f 168/2/2 167/2/2 169/2/2
f 153/2/2 154/2/2 173/2/2
f 173/2/2 154/2/2 174/2/2
f 170/4/2 171/4/2 177/4/2
f 177/4/2 171/4/2 178/4/2
f 172/4/2 173/4/2 179/4/2
f 179/4/2 173/4/2 180/4/2
f 175/3/2 176/3/2 181/3/2
f 181/3/2 176/3/2 182/3/2
f 183/1/2 184/1/2 187/1/2
f 187/1/2 184/1/2 188/1/2
f 185/1/2 186/1/2 189/1/2
f 189/1/2 186/1/2 190/1/2
f 187/2/2 188/2/2 191/2/2
f 191/2/2 188/2/2 192/2/2
f 192/2/2 193/2/2 194/2/2
f 194/2/2 193/2/2 195/2/2
f 195/2/2 196/2/2 197/2/2
f 197/2/2 196/2/2 198/2/2
f 198/2/2 199/2/2 200/2/2
f 200/2/2 199/2/2 201/2/2
f 202/2/2 203/2/2 204/2/2
f 204/2/2 203/2/2 205/2/2
f 189/2/2 190/2/2 207/2/2
f 207/2/2 190/2/2 208/2/2
f 206/4/2 207/4/2 211/4/2
f 211/4/2 207/4/2 212/4/2
f 209/3/2 210/3/2 214/3/2
f 212/1/2 213/1/2 214/1/2
f 211/1/2 212/1/2 214/1/2
f 210/1/2 211/1/2 214/1/2
f 214/1/2 213/1/2 215/1/2
f 209/3/2 214/3/2 216/3/2
f 214/4/2 215/4/2 216/4/2
f 216/4/2 215/4/2 217/4/2
f 209/3/2 216/3/2 218/3/2
f 216/1/2 217/1/2 219/1/2
f 218/3/2 216/3/2 219/3/2
f 219/1/2 217/1/2 220/1/2
f 221/1/2 222/1/2 225/1/2
f 225/1/2 222/1/2 226/1/2
f 223/1/2 224/1/2 227/1/2
f 227/1/2 224/1/2 228/1/2
f 225/2/2 226/2/2 229/2/2
f 226/1/2 227/1/2 229/1/2
f 227/2/2 228/2/2 230/2/2
f 229/1/2 227/1/2 230/1/2
f 225/2/2 229/2/2 231/2/2
f 229/2/2 230/2/2 231/2/2
f 231/2/2 230/2/2 232/2/2
f 232/2/2 230/2/2 233/2/2
f 233/2/2 230/2/2 234/2/2
f 234/2/2 230/2/2 235/2/2
f 235/2/2 230/2/2 236/2/2
f 236/2/2 230/2/2 237/2/2
f 237/2/2 230/2/2 238/2/2
f 238/2/2 230/2/2 239/2/2
f 230/2/2 228/2/2 240/2/2
f 239/2/2 230/2/2 240/2/2
f 244/1/3 242/1/3 241/1/3
f 245/2/3 243/2/3 242/2/3
f 245/1/3 242/1/3 244/1/3
f 246/2/3 243/2/3 245/2/3
f 250/1/3 248/1/3 247/1/3
f 251/2/3 249/2/3 248/2/3
f 251/1/3 248/1/3 250/1/3
f 252/2/3 249/2/3 251/2/3
f 256/2/3 253/2/3 252/2/3
f 257/2/3 253/2/3 256/2/3
f 258/1/3 255/1/3 254/1/3
f 259/2/3 256/2/3 255/2/3
f 259/1/3 255/1/3 258/1/3
f 260/2/3 256/2/3 259/2/3
f 264/1/3 262/1/3 261/1/3
f 265/2/3 263/2/3 262/2/3
f 265/1/3 262/1/3 264/1/3
f 266/2/3 263/2/3 265/2/3
f 268/2/3 267/2/3 266/2/3
f 269/2/3 267/2/3 268/2/3
f 272/2/3 270/2/3 269/2/3
f 273/2/3 270/2/3 272/2/3
f 276/2/3 272/2/3 271/2/3
f 277/2/3 272/2/3 276/2/3
f 278/1/3 275/1/3 274/1/3
f 279/2/3 276/2/3 275/2/3
f 279/1/3 275/1/3 278/1/3
f 280/2/3 276/2/3 279/2/3
f 283/2/3 282/2/3 281/2/3
f 284/2/3 282/2/3 283/2/3
f 286/2/3 285/2/3 284/2/3
f 287/2/3 285/2/3 286/2/3
f 290/2/3 288/2/3 287/2/3
f 291/2/3 288/2/3 290/2/3
f 293/2/3 290/2/3 289/2/3
f 294/2/3 290/2/3 293/2/3
f 295/2/3 293/2/3 292/2/3
f 296/2/3 293/2/3 295/2/3
f 299/2/3 298/2/3 297/2/3
f 300/2/3 298/2/3 299/2/3
f 302/2/3 301/2/3 300/2/3
f 303/2/3 301/2/3 302/2/3
f 307/2/3 305/2/3 304/2/3
f 308/2/3 305/2/3 307/2/3
f 309/2/3 307/2/3 306/2/3
f 310/2/3 307/2/3 309/2/3
f 313/2/3 312/2/3 311/2/3
f 314/2/3 312/2/3 313/2/3
f 319/2/3 316/2/3 315/2/3
f 320/2/3 316/2/3 319/2/3
f 321/3/3 318/3/3 317/3/3
f 322/3/3 318/3/3 321/3/3
f 325/2/3 324/2/3 323/2/3
f 326/2/3 324/2/3 325/2/3
f 331/2/3 328/2/3 327/2/3
f 332/2/3 328/2/3 331/2/3
f 333/3/3 330/3/3 329/3/3
f 334/3/3 330/3/3 333/3/3
f 339/2/3 336/2/3 335/2/3
f 340/2/3 336/2/3 339/2/3
f 341/3/3 338/3/3 337/3/3
f 342/3/3 338/3/3 341/3/3
f 345/2/3 344/2/3 343/2/3
f 346/2/3 344/2/3 345/2/3
f 349/4/3 348/4/3 347/4/3
f 350/4/3 348/4/3 349/4/3
f 353/2/3 352/2/3 351/2/3
f 354/2/3 352/2/3 353/2/3
f 357/4/3 356/4/3 355/4/3
f 358/4/3 356/4/3 357/4/3
f 361/4/3 360/4/3 359/4/3
f 362/4/3 360/4/3 361/4/3
f 365/1/3 364/1/3 363/1/3
f 366/1/3 364/1/3 365/1/3
f 369/1/3 368/1/3 367/1/3
f 370/1/3 368/1/3 369/1/3
f 373/2/3 372/2/3 371/2/3
f 374/2/3 372/2/3 373/2/3
f 377/2/3 376/2/3 375/2/3
f 378/2/3 376/2/3 377/2/3
f 381/2/3 380/2/3 379/2/3
f 382/2/3 380/2/3 381/2/3
f 383/4/4 384/4/4 386/4/4
f 384/2/4 385/2/4 387/2/4
f 386/4/4 384/4/4 387/4/4
f 387/2/4 385/2/4 388/2/4
f 389/4/4 390/4/4 392/4/4
f 390/2/4 391/2/4 393/2/4
f 392/4/4 390/4/4 393/4/4
f 393/2/4 391/2/4 394/2/4
f 395/4/4 396/4/4 398/4/4
f 396/2/4 397/2/4 399/2/4
f 398/4/4 396/4/4 399/4/4
f 399/2/4 397/2/4 400/2/4
f 401/4/4 402/4/4 403/4/4
f 403/4/4 402/4/4 404/4/4
f 405/4/4 406/4/4 407/4/4
f 407/4/4 406/4/4 408/4/4
f 409/4/4 410/4/4 411/4/4
f 411/4/4 410/4/4 412/4/4
f 413/1/4 414/1/4 415/1/4
f 415/1/4 414/1/4 416/1/4
f 417/1/4 418/1/4 419/1/4
f 419/1/4 418/1/4 420/1/4
f 421/1/4 422/1/4 424/1/4
f 422/2/4 423/2/4 425/2/4
f 424/1/4 422/1/4 425/1/4
f 425/2/4 423/2/4 426/2/4
f 426/4/4 427/4/4 428/4/4
f 428/4/4 427/4/4 429/4/4
f 430/4/4 431/4/4 434/4/4
f 434/4/4 431/4/4 435/4/4
f 432/1/4 433/1/4 436/1/4
f 433/2/4 434/2/4 437/2/4
f 436/1/4 433/1/4 437/1/4
f 437/2/4 434/2/4 438/2/4
f 439/1/4 440/1/4 446/1/4
f 440/2/4 441/2/4 447/2/4
f 446/1/4 440/1/4 447/1/4
f 447/2/4 441/2/4 448/2/4
f 442/1/4 443/1/4 449/1/4
f 448/4/4 449/4/4 450/4/4
f 449/1/4 443/1/4 450/1/4
f 443/4/4 444/4/4 451/4/4
f 450/1/4 443/1/4 451/1/4
f 444/1/4 445/1/4 452/1/4
f 451/4/4 444/4/4 452/4/4
f 452/1/4 445/1/4 453/1/4
f 450/3/4 451/3/4 454/3/4
f 448/4/4 450/4/4 454/4/4
f 451/4/4 452/4/4 455/4/4
f 454/3/4 451/3/4 455/3/4
f 452/3/4 453/3/4 456/3/4
f 455/4/4 452/4/4 456/4/4
f 456/3/4 453/3/4 457/3/4
f 448/4/4 454/4/4 460/4/4
f 454/1/4 455/1/4 461/1/4
f 460/4/4 454/4/4 461/4/4
f 458/1/4 459/1/4 462/1/4
f 459/2/4 460/2/4 463/2/4
f 462/1/4 459/1/4 463/1/4
f 463/2/4 460/2/4 464/2/4
f 461/1/4 455/1/4 465/1/4
f 455/4/4 456/4/4 466/4/4
f 465/1/4 455/1/4 466/1/4
f 456/1/4 457/1/4 467/1/4
f 466/4/4 456/4/4 467/4/4
f 467/1/4 457/1/4 468/1/4
f 469/1/4 470/1/4 472/1/4
f 470/2/4 471/2/4 473/2/4
f 472/1/4 470/1/4 473/1/4
f 473/2/4 471/2/4 474/2/4
f 478/1/5 476/1/5 475/1/5
f 479/1/5 476/1/5 478/1/5
f 482/1/5 478/1/5 477/1/5
f 482/1/5 480/1/5 479/1/5
f 482/1/5 479/1/5 478/1/5
f 483/1/5 480/1/5 482/1/5
f 485/1/5 482/1/5 481/1/5
f 485/1/5 484/1/5 483/1/5
f 485/1/5 483/1/5 482/1/5
f 486/1/5 484/1/5 485/1/5
f 489/1/5 488/1/5 487/1/5
f 490/1/5 488/1/5 489/1/5
f 491/1/5 488/1/5 490/1/5
f 492/1/5 488/1/5 491/1/5
f 493/1/5 491/1/5 490/1/5
f 494/1/5 491/1/5 493/1/5
f 495/1/5 491/1/5 494/1/5
f 496/1/5 491/1/5 495/1/5
f 497/1/5 495/1/5 494/1/5
f 498/1/5 495/1/5 497/1/5
f 501/1/5 500/1/5 499/1/5
f 502/1/5 500/1/5 501/1/5
f 506/2/5 504/2/5 503/2/5
f 507/2/5 504/2/5 506/2/5
f 509/2/5 506/2/5 505/2/5
f 510/4/5 507/4/5 506/4/5
f 510/2/5 506/2/5 509/2/5
f 511/2/5 508/2/5 507/2/5
f 511/4/5 507/4/5 510/4/5
f 512/2/5 508/2/5 511/2/5
f 513/4/5 510/4/5 509/4/5
f 514/4/5 510/4/5 513/4/5
f 515/4/5 512/4/5 511/4/5
f 516/4/5 512/4/5 515/4/5
f 520/4/5 518/4/5 517/4/5
f 521/4/5 518/4/5 520/4/5
f 523/4/5 520/4/5 519/4/5
f 523/4/5 522/4/5 521/4/5
f 523/4/5 521/4/5 520/4/5
f 524/4/5 522/4/5 523/4/5
f 525/4/5 522/4/5 524/4/5
f 526/4/5 522/4/5 525/4/5
f 527/4/5 525/4/5 524/4/5
f 528/4/5 525/4/5 527/4/5
f 532/3/5 530/3/5 529/3/5
f 533/3/5 530/3/5 532/3/5
f 535/3/5 532/3/5 531/3/5
f 535/3/5 534/3/5 533/3/5
f 535/3/5 533/3/5 532/3/5
f 536/3/5 534/3/5 535/3/5
f 537/3/5 534/3/5 536/3/5
f 538/3/5 534/3/5 537/3/5
f 539/1/5 536/1/5 535/1/5
f 540/1/5 536/1/5 539/1/5
f 541/1/5 538/1/5 537/1/5
f 542/1/5 538/1/5 541/1/5
f 547/1/5 544/1/5 543/1/5
f 548/1/5 544/1/5 547/1/5
f 549/1/5 546/1/5 545/1/5
f 550/1/5 546/1/5 549/1/5
f 551/1/6 552/1/6 554/1/6
f 554/1/6 552/1/6 555/1/6
f 553/1/6 554/1/6 557/1/6
f 555/1/6 556/1/6 557/1/6
f 554/1/6 555/1/6 557/1/6
f 557/1/6 556/1/6 558/1/6
f 559/1/6 560/1/6 561/1/6
f 561/1/6 560/1/6 562/1/6
f 562/1/6 560/1/6 563/1/6
f 563/1/6 560/1/6 564/1/6
f 562/1/6 563/1/6 565/1/6
f 565/1/6 563/1/6 566/1/6
f 567/1/6 568/1/6 569/1/6
f 569/1/6 568/1/6 570/1/6
f 571/2/6 572/2/6 574/2/6
f 574/2/6 572/2/6 575/2/6
f 573/2/6 574/2/6 578/2/6
f 578/2/6 574/2/6 579/2/6
f 575/2/6 576/2/6 580/2/6
f 580/2/6 576/2/6 581/2/6
f 577/2/6 578/2/6 583/2/6
f 583/2/6 578/2/6 584/2/6
f 581/2/6 582/2/6 585/2/6
f 585/2/6 582/2/6 586/2/6
f 587/2/6 588/2/6 590/2/6
f 590/2/6 588/2/6 591/2/6
f 589/2/6 590/2/6 594/2/6
f 594/2/6 590/2/6 595/2/6
f 591/2/6 592/2/6 596/2/6
f 596/2/6 592/2/6 597/2/6
f 593/2/6 594/2/6 599/2/6
f 599/2/6 594/2/6 600/2/6
f 597/2/6 598/2/6 601/2/6
f 601/2/6 598/2/6 602/2/6
f 603/2/6 604/2/6 606/2/6
f 606/2/6 604/2/6 607/2/6
f 605/2/6 606/2/6 610/2/6
f 610/2/6 606/2/6 611/2/6
f 607/2/6 608/2/6 612/2/6
f 612/2/6 608/2/6 613/2/6
f 609/2/6 610/2/6 615/2/6
f 615/2/6 610/2/6 616/2/6
f 613/2/6 614/2/6 617/2/6
f 617/2/6 614/2/6 618/2/6
f 619/2/6 620/2/6 622/2/6
f 622/2/6 620/2/6 623/2/6
f 621/2/6 622/2/6 626/2/6
f 623/2/6 624/2/6 626/2/6
f 622/2/6 623/2/6 626/2/6
f 626/2/6 624/2/6 627/2/6
f 627/2/6 624/2/6 628/2/6
f 628/2/6 624/2/6 629/2/6
f 625/2/6 626/2/6 631/2/6
f 626/2/6 627/2/6 631/2/6
f 631/2/6 627/2/6 632/2/6
f 629/2/6 630/2/6 633/2/6
f 628/2/6 629/2/6 633/2/6
f 633/2/6 630/2/6 634/2/6
f 625/2/6 631/2/6 635/2/6
f 635/2/6 631/2/6 636/2/6
f 634/2/6 630/2/6 637/2/6
f 637/2/6 630/2/6 638/2/6
f 639/2/6 640/2/6 642/2/6
f 642/2/6 640/2/6 643/2/6
f 641/2/6 642/2/6 646/2/6
f 643/2/6 644/2/6 646/2/6
f 642/2/6 643/2/6 646/2/6
f 646/2/6 644/2/6 647/2/6
f 647/2/6 644/2/6 648/2/6
f 648/2/6 644/2/6 649/2/6
f 645/2/6 646/2/6 651/2/6
f 646/2/6 647/2/6 651/2/6
f 651/2/6 647/2/6 652/2/6
f 649/2/6 650/2/6 653/2/6
f 648/2/6 649/2/6 653/2/6
f 653/2/6 650/2/6 654/2/6
f 645/2/6 651/2/6 655/2/6
f 655/2/6 651/2/6 656/2/6
f 654/2/6 650/2/6 659/2/6
f 659/2/6 650/2/6 660/2/6
f 656/2/6 657/2/6 661/2/6
f 661/2/6 657/2/6 662/2/6
f 658/2/6 659/2/6 663/2/6
f 663/2/6 659/2/6 664/2/6
f 662/2/6 663/2/6 665/2/6
f 665/2/6 663/2/6 666/2/6
f 667/3/6 668/3/6 670/3/6
f 670/3/6 668/3/6 671/3/6
f 669/3/6 670/3/6 673/3/6
f 671/3/6 672/3/6 673/3/6
f 670/3/6 671/3/6 673/3/6
f 673/3/6 672/3/6 674/3/6
f 674/3/6 672/3/6 675/3/6
f 675/3/6 672/3/6 676/3/6
f 673/1/6 674/1/6 677/1/6
f 674/4/6 675/4/6 677/4/6
f 677/4/6 675/4/6 678/4/6
f 678/4/6 675/4/6 679/4/6
f 675/1/6 676/1/6 680/1/6
f 679/4/6 675/4/6 680/4/6
f 673/1/6 677/1/6 681/1/6
f 677/1/6 678/1/6 681/1/6
f 678/3/6 679/3/6 682/3/6
f 681/1/6 678/1/6 682/1/6
f 679/1/6 680/1/6 683/1/6
f 682/3/6 679/3/6 683/3/6
f 680/1/6 676/1/6 684/1/6
f 683/1/6 680/1/6 684/1/6
